<?xml version="1.0" encoding="utf-8"?>
<!-- Generator: Adobe Illustrator 19.2.0, SVG Export Plug-In . SVG Version: 6.00 Build 0)  -->
<svg version="1.1" id="Layer_1" xmlns="http://www.w3.org/2000/svg" xmlns:xlink="http://www.w3.org/1999/xlink" x="0px" y="0px"
	 viewBox="0 0 271.7 200.3" style="enable-background:new 0 0 271.7 200.3;" xml:space="preserve">
<style type="text/css">
	.st0{fill:#4C2B6E;}
	.st1{font-family:'BrandonGrotesque-Black';}
	.st2{font-size:112.1346px;}
	.st3{fill:#EAB131;}
	.st4{font-family:'BrandonGrotesque-Light';}
	.st5{font-size:50.5441px;}
	.st6{fill:none;stroke:#4C2B6E;stroke-miterlimit:10;}
</style>
<text transform="matrix(1 0 0 1 29.0589 133.3181)" class="st0 st1 st2">404</text>
<g>
	<g>
		<circle class="st0" cx="132.6" cy="157.2" r="26.9"/>
		<path class="st0" d="M166.1,156.4c0.2-1.4-0.2-2.7-1.2-3.6c-1.2-1.1-3.2-1.6-5.2-1.2c-0.2,0-0.4,0.1-0.6,0.1
			c-0.3-0.4-0.6-0.7-1-0.9c0,0-0.1,0-0.1,0c0-0.3,0-0.7-0.1-1c-0.1-0.6-0.3-1-0.6-1.5c0.6,0.3,0.8,0.5,1,0.6c0.3,0.7,1,1.3,1.8,1.4
			c1,0.2,2-0.4,2.4-1.3c1.3-3.1,0.6-5.3-0.3-6.6c-1.3-2-3.9-3.4-7.5-4.1c0.4-1.1,0.1-2.4-0.7-3.2c0.6-1.2,1.2-2.5,1.7-3.4
			c0.6-1.3,0.2-2.8-1-3.6c-0.4-0.3-0.9-0.4-1.5-0.5l0,0c-0.6-0.1-1.3-0.1-1.9-0.1c-0.3-0.2-0.6-0.4-0.9-0.5
			c-0.8-0.3-1.7-0.4-2.7-0.2c-0.9,0.2-1.9,0.6-2.8,1.3c-0.1-0.1-0.2-0.3-0.3-0.4c-0.6-0.7-1.7-1.1-2.6-1l-2,0.3
			c-0.7,0.1-1.3,0.5-1.8,1.1c-0.3-0.3-0.6-0.7-1.1-0.9c-1.1-0.6-2.4-0.4-3.4,0.4c-0.2,0.1-0.3,0.3-0.5,0.5c0,0,0,0,0,0
			c-0.7-0.6-1.6-1-2.6-0.9c-0.1-0.7-0.3-1.5-0.7-2.1c-0.7-1.2-2-1.8-3.5-1.8c-0.3,0-0.5,0-0.8,0.1c-1.5,0.2-2.8,1.2-3.6,2.7
			c-0.2,0.3-0.3,0.7-0.5,1.1c-0.6-0.2-1.2-0.3-1.9-0.2c-0.9,0.2-1.7,0.7-2.4,1.4c-0.3,0-0.5,0-0.8,0l-12.8,3.3
			c-0.7-0.5-1.6-0.7-2.5-0.7c-2.6,0-4.7,2.1-4.7,4.6c0,2.5,2.1,4.6,4.7,4.6c0.4,0,0.8-0.1,1.2-0.2c0.1,0,0.2,0,0.3-0.1
			c0.7-0.3,1.8-0.7,3-1.1c0.2-0.1,0.4-0.2,0.7-0.3c-2.9,4.5-5.3,10.8-4.9,18.8c-1.3,0.5-2.3,1.7-2.3,3.2c0,1.2,0.6,2.2,1.5,2.8
			c-1.4,3.7-1.8,7.4-0.9,10.4c0.7,2.5,2.3,4.3,4.4,5.3c1,0.5,2.2,0.7,3.4,0.7c1.1,0,2.2-0.2,3.4-0.6c-1.4,1.8-2.3,3.7-2.1,5.7
			c0.2,3,1.9,4.5,2.5,4.9c0.5,0.4,1.2,0.6,1.8,0.6c0.1,0,0.5,0,0.6-0.1c0.7-0.1,1.4-0.5,1.8-1.1c0.2-0.2,0.4-0.5,0.5-0.7
			c5.8-11.4,19.9-15.3,29.9-17.3c4.7-0.9,8.7-1,10.1-1c0.3,0,0.6,0,0.7,0c0.1,0,0.2,0,0.4,0c0.4,0,0.8-0.1,1.2-0.1
			c3.6-0.7,6-3.5,6.8-6c0.6-1.9,0.4-3.7-0.5-5.3C165.4,158.2,166,157.4,166.1,156.4z M140,146.9c-1.3,0.3-2.3,0.7-3,1.2
			c-0.4,0.3-0.8,0.6-1,0.9c-1.4-0.2-3.3,0.4-4.3,2c-0.3,0.5-0.4,0.9-0.5,1.3c-0.3,0-0.7,0-1.2,0.1c-0.3,0.1-0.7,0.2-1.1,0.3
			c0.1-0.4,0.2-1.1,0.2-2c0-0.3,0-1.7-0.9-2.8c4.2-1,8.4-1.4,12.1-1.5C140.2,146.6,140.1,146.7,140,146.9z M114.4,138.2
			c0.1,0.9,0.2,1.9,0.5,3c-0.2,0.1-0.4,0.2-0.6,0.3c-1.2,0.7-2.3,2.4-1.7,4.4c0.1,0.3,0.2,0.5,0.4,0.7c-1,0.5-1.9,1-2.6,1.5
			C110.8,145.8,111.9,142.5,114.4,138.2z M119.4,150.7c-0.2,0.6-0.3,1.1-0.3,1.7l0,0.1c-0.5-0.3-0.8-0.5-1-0.6
			c-0.2-0.1-0.5-0.2-0.8-0.3C118,151.3,118.7,151,119.4,150.7z M109.3,161.7c1.4,0.2,2.7,0.8,3.7,1.4l0.5,0.2
			c0.8,0.4,1.7,0.6,2.6,0.7c-1.4,4.3-4.7,6.6-6.6,6c-0.2-0.1-0.8-0.3-1.2-1.4C107.6,166.9,108,164.1,109.3,161.7z"/>
	</g>
	<g>
		<path class="st3" d="M119.1,131.6c0.3-0.1,0.7-0.3,1-0.6c0.4-0.4,0.7-0.8,0.8-1.2c0.2-0.6,0.1-1-0.2-1.3c-0.2-0.2-0.5-0.3-0.9-0.2
			c-0.5,0.1-1.1,0.5-1.5,1.1c-0.5,0.8-0.6,1.6-0.2,2C118.4,131.5,118.7,131.6,119.1,131.6z"/>
		<path class="st3" d="M126.1,167.8l-0.3-3.3c-1.1,0.8-2,1.9-2.9,2.7c0.2,1.1-0.2,2.1-0.6,2.3c0,0-0.1,0-0.1,0
			c-0.3,0.1-0.6,0-0.6-0.5c0-0.7,0.3-1.5,0.9-2.4v0c0.6-0.8,1.9-2.2,4.4-3.8c4.3-2.8,5-3.4,5-3.4s0,0,0,0c1.1-0.8,1.7-1.5,1.8-2.2
			c0.2-1,0.1-1.9-0.3-2.5c-0.6-0.7-1.5-0.8-1.7-0.8c-0.1,0-0.5,0-1.1,0.1c-1.2,0.2-3.2,1.2-3.5,5c0,0.6-0.1,1.2,0,1.8
			c-0.4,0.3-1,0.6-1.6,1c-0.7-8.6-0.5-10.9-0.3-11.5c0.3,0.1,0.3,1.2,0.3,1.2c0,0.3,0,0.7,0.3,0.9c0.1,0.1,0.3,0.2,0.5,0.1
			c0.2,0,0.4-0.2,0.4-0.3c0-0.1,0.1-0.1,0.1-0.2c0,0,0.2-0.8,0.2-1.9c0,0,0.1-2.3-2.2-1.9c0,0,0,0-0.1,0c-2.5,0.6-3.2,2.5-3.2,3.4
			c0,0,0,0,0,0l0.7,12.6c-0.6,0.6-1.1,1.1-1.6,1.7c-1.9,2.5-1.3,4.1-1,4.6c0.5,0.9,1.6,1.3,2.7,1.1c0,0,0.1,0,0.1,0
			C124.7,171.2,125.9,169.9,126.1,167.8 M131.8,155.8c0,0,0.1,0,0.1,0c0.1,0.1,0.3,0.5,0.3,0.9c0,0.3-0.5,1-2.1,2.2
			C130.4,156.2,131.8,155.8,131.8,155.8z"/>
		<path class="st3" d="M146,147.6c-2,0.2-5.9,0.8-7.4,1.8c-2.1,1.3,0,2.4,0.8,2.1c0.7-0.2,3.4-1.1,6.2-1.4
			C145.7,149.4,146,148.2,146,147.6z"/>
		<path class="st3" d="M133.3,162.1c-1.3,1.8-2.4,1.2-2.4,1.2c-0.4-0.3-0.7-1-0.8-1.9c-0.4,0.3-0.8,0.6-1.4,1
			c-0.3,0.2-0.6,0.4-1.1,0.7c0.5,1.5,1.3,2,1.6,2.1c0.2,0.1,1.1,0.6,2.3,0.3c1.8-0.4,3.9-1.8,4.8-4.8c0.5-1.8,0.9-3.6,1.2-5.5
			c0,0,0,0.2,0,0.2c0,0,0.6,0.2,0.9,0.6c0.3,0.5-1,4.6-0.9,5.6c0.1,1,0.4,2.3,3.2,1.8c0.1,0,0.3-0.1,0.4-0.1c1-0.3,1.9-1,2.8-2.1
			c0.5,0.8,1,1.2,1.7,1.3c0.2,0,0.4,0,0.6,0c0.6-0.1,1.2-0.6,1.7-1.4c0.3,0.4,0.7,0.6,1.2,0.7c0.3,0.1,0.6,0.1,0.9,0
			c0.8-0.2,1.7-0.7,2.4-1.5c0,0.2,0.1,0.4,0.1,0.6c0.2,0.5,0.5,0.7,0.7,0.8c0.4,0.2,0.9,0.2,1.4,0.1c0.3-0.1,0.7-0.2,0.9-0.4
			c0,0,0.1,0,0.1-0.1c0.1,0,0.1-0.1,0.2-0.1c0,0,0,0,0.1-0.1c0,0,0,0,0,0c0.3-0.3,0.6-0.6,0.8-0.8c0.5-0.6,0.9-1.3,1.2-1.9
			c0.3,0.3,0.7,0.5,0.9,0.7c0.9,0.6,1.7,1.3,1.2,3.1c-0.3,1.1-1.6,1.6-2.7,1.8c-0.6,0.1-1.1,0.1-1.1,0.1c-0.4,0-8.5-0.3-17.2,1.4
			c-5.2,1-8.6,2-12,4l0,0c-0.3,1.1-0.9,2.4-2.3,3.1c-1,0.6-2.1,0.6-2.9,0.5c-6.6,3.7-10.6,7.6-10.4,10.8c0.1,2.2,1.5,3.2,1.6,3.2
			c0.2,0.1,0.4,0.2,0.7,0.1c0.3-0.1,0.6-0.3,0.6-0.4l0,0c0,0,0.1-0.1,0.1-0.1c6.5-12.7,22.2-16.7,31.5-18.5
			c6.5-1.3,11.4-1.1,11.4-1.1c0,0,0,0,0.1,0c0.3,0,0.6-0.1,0.9-0.1c2.7-0.5,4.5-2.6,5-4.4c0.7-2.2-0.2-3.9-1.8-5c0,0-0.1,0,0,0
			c0,0-2.1-1.1-2.2-1.4c-0.1-0.3-0.1-0.6-0.1-0.7c0.3-0.5,0.8-0.7,1.3-0.8c0.5-0.1,1.4,0.1,1.7,0.3c0,0.1,0,0.2,0.1,0.4
			c0.2,0.6,0.8,0.8,1.3,0.7c0.4-0.1,0.7-0.4,0.8-0.8c0.1-0.7-0.1-1.2-0.5-1.7c-0.7-0.6-1.9-0.9-3.2-0.6c-1.3,0.2-2.3,0.9-2.8,1.8
			c-0.5,0.8-0.6,1.5-0.5,2.1c-0.7,1.7-1.4,2.3-1.7,2.4c0,0-0.1,0-0.1,0c0,0,0,0,0,0c-0.1-0.5,0.9-3.2,2.3-6.7c0.1-0.2,0-0.5-0.2-0.6
			c-0.1-0.1-0.2-0.1-0.3,0c0,0-0.1,0-0.2,0c-0.4,0-1.2,0-1.7,0.1c-0.2,0-0.3,0.1-0.4,0.1c-0.1,0-0.1,0.1-0.2,0.1
			c-0.3-0.4-0.6-0.7-1.1-0.8c-0.3-0.1-0.7-0.1-1.1,0c-1.5,0.3-3.2,1.9-4.2,4c-0.7,1.5-1,3-0.9,4.2c0,0-0.5,1-1.4,1.1
			c-0.9,0-0.1-3.2-0.1-3.2c1.2-3.7,1.7-5.1,2-6.8c0-0.2,0.1-0.4,0.1-0.5c0-0.1,0-0.2,0.1-0.3c2.5,0.1,4.7,0.5,6.7,1.6
			c0.1,0.1,0.2,0.1,0.4,0.1c0.5-0.1,1.2-1.2,1-2.1c-0.3-1.8-2.7-2.5-7.8-2.1c0-0.8-0.3-1.4-0.9-2c0,0-0.5-0.6-1.7-0.6
			c-6.2-0.1-2.4,13.5-2.4,13.5l1.4-4.5c0.2-7.9,1.6-7.2,1.6-7.2c1.3,0.7-2.4,11.9-2.4,11.9c-0.9,1.9-2.5,4.7-3.1,3.2
			c-0.2-0.6,0.6-4.5,0.6-4.5c0.4-2-1.8-2.6-3.6-3.3c0-0.2,0.1-0.5,0.1-0.7c0.2-1.5-0.6-2.1-1.4-2.5c-0.6-0.3-1.9,0-2.3,0.8
			c-0.9,1.6,0.1,2.8,1.6,3.5C135.6,155,134.5,160.5,133.3,162.1z M135,151.7c0.1-0.3,1-0.8,1.1,0.3c0,0.3-0.2,1.2-0.2,1.6
			C134.2,153,134.9,152,135,151.7z M152.9,156.2c-0.6,1.3-1.6,2.4-2.5,2.6c-0.1,0-0.3,0-0.4,0c-0.2,0-0.4-0.2-0.5-0.4
			c-0.2-0.5-0.2-1.5,0.4-2.8c0.7-1.4,1.7-2.1,2.4-2.3c0.2,0,0.3,0,0.4,0c0.2,0,0.3,0.2,0.4,0.4C153.4,154.2,153.4,155.1,152.9,156.2
			z"/>
		<path class="st3" d="M134.5,140.7c-10.9,2.1-19.4,6.6-23.4,9.1c0,0,0,0,0,0s-1.1,0.7-2.2,1.4c-0.2,0.2-0.4,0.3-0.4,0.3s0,0,0,0
			c-0.9,0.6-1.7,1.2-1.9,1.4c-0.4,0.5,0.6-1,1.8-2.2c-0.2-2.1-0.1-8.4,7.2-18.5c0.8-1.1,1.7-2.3,1.7-2.3l-13.9,3.6
			c-0.4-0.6-1.1-1-1.9-1c-1.3,0-2.4,1-2.4,2.3c0,1.3,1.1,2.3,2.4,2.3c0.2,0,0.5-0.1,0.7-0.1l0,0c0.1,0-0.1,0,0,0c0.1,0-0.1,0,0,0
			c2.6-0.9,8.9-3.6,11.1-3.9c-4.1,4-9.9,11.8-9.3,23.4c0.1,0.9,1,0.5,1.4,0.1c13.9-11.1,35.9-15.2,48-13.2c8.3,1.3,7.3,3.8,7.3,3.8
			C163.8,140,152.4,137.3,134.5,140.7z"/>
		<circle class="st3" cx="102.8" cy="159.9" r="1.2"/>
		<path class="st3" d="M120.3,156.6c-0.3-0.9-0.9-1.7-1.5-2.3c-0.2-0.2-0.3-0.3-0.5-0.4c-0.5-0.4-0.8-0.6-0.9-0.6
			c-2.9-1.4-7.1,0.2-10.5,3.9c-1.4,0.3-2.9,1-4.5,2.2c-0.4,0.3-0.5,0.9-0.2,1.3c0.3,0.4,0.9,0.5,1.3,0.2c0.4-0.3,0.8-0.6,1.3-0.8
			c-4,6.5-4.1,14.2,0.6,16.4c4.7,2.2,11.3-2.7,14.2-9.8C121.1,162.8,121.3,159.2,120.3,156.6z M116.2,154.9c0.8,0.3,1.5,0.9,1.9,1.7
			c0.2-0.5,0.4-1.3,0.4-1.3c0.6,1.2,0,2.6,0,2.6s0,0,0,0c-0.1,0.4-0.4,0.8-0.8,1.1c-0.3,0.2-1.1,0.7-2.1,0.2l-0.4-0.2
			c-1.2-0.6-3.1-1.6-5.4-1.9C111.9,155,114.3,154.2,116.2,154.9z M118.6,164c-1.6,5.1-6.1,8.8-9.6,7.5c-3.5-1.3-3.9-6.9-1.3-11.6
			c0.2-0.4,0.4-0.7,0.7-1.1c2.5-0.2,4.6,0.9,6,1.7l0.4,0.2c0.5,0.3,1.1,0.4,1.7,0.4c0.8,0,1.6-0.3,2.3-0.8c0.2-0.1,0.3-0.2,0.4-0.4
			C119.2,161.3,119.1,162.6,118.6,164z"/>
		<path class="st3" d="M153.7,129.1c-0.1-0.1-0.2-0.1-0.3-0.1c0,0-0.1,0-0.2,0c-0.7-0.1-1.6-0.2-2.1,0c-0.1,0-0.1,0.1-0.2,0.1
			c-0.2-0.4-0.6-0.7-1-0.8c-0.4-0.2-0.8-0.2-1.3-0.1c-1.4,0.3-3,1.6-4.1,3.4c-0.7,1.2-1.1,2.4-1.1,3.4c-0.2,0.4-0.5,0.7-0.8,0.8
			c-0.1,0-0.1,0-0.2,0c-0.1-0.1-0.4-0.8-0.2-2.4c0.1-0.6,0.2-1.2,0.3-1.7c0.6-1.2,1-2.3,1.1-2.8l0,0c0.1-0.2,0-0.4-0.1-0.5
			c-0.1-0.1-0.3-0.2-0.5-0.2l-2,0.3c-0.2,0-0.3,0.1-0.4,0.3c-0.1,0.1-1.1,2.3-1.5,4.6c0,0.1-0.4,1.6-1.3,2.4c-2.6,2-2.3-0.9-2.1-1.9
			l0,0l0,0c0,0,0-0.1,0-0.1c0.1-0.5,0.4-2.4,0.5-3c0,0-0.1,1.3,0,1.6c1.1-2.6,1.1-3.5,0.4-3.8c-0.1-0.1-0.5-0.2-0.8,0.1
			c-0.6,0.5-1.6,2.7-2,4.9c-0.1,0.2-0.2,0.4-0.2,0.6c-0.9,2.1-1.5,2.9-1.8,3.2c-0.8,0.1,0.7-3.6,1.1-5.9c0,0,0,0,0-0.1
			c0-0.2,0.2-1.5-0.6-2.2c-0.3-0.3-0.9-0.5-1.8-0.2c-1,0.3-1.8,1.2-2.7,2.8c0,0,3.1-7.3-1.9-6.7c-0.8,0.1-1.6,0.7-2,1.6
			c-1.3,2.5-1,6.3,0.3,11.6c0.3-0.4,0.3-1.1,0.6-2.3c-0.5-6.1,0.5-8.3,1.3-8.5c0,0,1-0.4-0.2,6.9c-0.2,1.4-0.6,3.4-1.3,4.4
			c0,0-0.7,1.2-2,1.5c-0.8,0.2-1.1-0.4-1.1-0.4c0.5-1.3,0.7-2.6,0.7-3.9c-0.1-1.6-0.4-2.6-1.1-3c-0.4-0.3-0.8-0.4-1.3-0.3
			c-0.7,0.1-1.2,0.6-1.3,0.6c0,0,0,0,0,0c-0.1,0.1-2,2.3-0.6,6.7c0.1,0.3,0.2,0.6,0.4,0.9c0.9-1.1,1.6-2.7,1.7-4.1
			c-0.1-0.9,0-1.7,0.3-2.1c0.1,0.5,0.1,1,0.1,1.5c0,0,0.3,3.1-2.6,6.3c0,0-0.1-0.1-0.1-0.1c-0.2-0.1-0.5-0.2-0.9-0.1
			c-0.2,0-0.4,0.1-0.6,0.3c-0.4,0.2-1,0.9-0.7,1.9c0.1,0.2,0.4,1,1.6,0.6c0.5-0.1,0.9-0.3,0.9-0.4c0,0,0.1,0,0.1-0.1
			c0,0,1.1-0.9,2.1-2.3c0.6,0.2,1.2,0.2,1.9,0c0,0,3.9-0.6,5.5-5.7c0.7-2.1,1.7-4.7,2.4-5.3c0.5,1-1.4,4.5-1.5,6.9
			c0,0.4,0.2,1,0.8,1.6c0.5,0.4,1.2,0.5,2.3,0.1c1.2-0.4,2.1-1.5,2.8-2.6c0.4,0.8,1.2,1.3,2.3,1.2c1.4-0.1,2-0.7,3-1.8
			c0,0.1,0.1,0.1,0.1,0.2c0.3,0.6,0.9,1.1,1.6,1.2c0.3,0.1,0.6,0.1,0.9,0c0.8-0.2,1.5-0.7,2-1.3c0.3,0.4,0.7,0.7,1.1,0.8
			c0.4,0.1,0.8,0.1,1.2,0c0.7-0.2,1.5-0.6,2.2-1.2c0,0.2,0,0.4,0.1,0.5c0.1,0.4,0.4,0.6,0.6,0.7c0.5,0.2,1,0.3,1.5,0.2
			c1.3-0.3,2.4-1.6,2.4-1.7c0,0,0,0,0-0.1c0.1-0.3,0.1-0.7-0.3-0.9c-0.1,0-0.2-0.1-0.4,0c-0.2,0-0.3,0.1-0.5,0.3
			c-0.1,0.1-0.3,0.2-0.5,0.3c0,0,0,0,0,0c0,0,0,0,0,0c0-0.5,1.1-2.9,2.6-6C154,129.5,153.9,129.3,153.7,129.1z M149.3,132.5
			c-0.6,1.1-1.6,2-2.5,2.2c-0.2,0-0.3,0-0.5,0c-0.2,0-0.3-0.2-0.4-0.4c-0.2-0.5-0.1-1.5,0.6-2.6c0.6-1,1.5-1.8,2.3-1.9
			c0.2,0,0.4,0,0.5,0c0.2,0.1,0.3,0.2,0.4,0.4C149.8,130.7,149.8,131.5,149.3,132.5z"/>
	</g>
</g>
<text transform="matrix(1 0 0 1 45.8803 49.9822)" class="st3 st4 st5">ERROR</text>
<line class="st6" x1="83.1" y1="158.4" x2="13.9" y2="158.4"/>
<line class="st6" x1="250.5" y1="158.4" x2="181.3" y2="158.4"/>
</svg>
