<?xml version="1.0" encoding="utf-8"?>
<!-- Generator: Adobe Illustrator 19.2.0, SVG Export Plug-In . SVG Version: 6.00 Build 0)  -->
<svg version="1.1" id="Layer_1" xmlns="http://www.w3.org/2000/svg" xmlns:xlink="http://www.w3.org/1999/xlink" x="0px" y="0px"
	 viewBox="0 0 481 476.2" style="enable-background:new 0 0 481 476.2;" xml:space="preserve">
<style type="text/css">
	.st0{fill:#552B71;}
</style>
<g>
	<rect x="113.6" y="306.9" class="st0" width="253.8" height="38.1"/>
	<path class="st0" d="M354.7,246.5l-36.1-36.1c-1.3-1.3-2-3.1-1.9-4.8c0,0,0-0.1,0-0.1V161H164.4v43.6c0.3,2-0.2,4.2-1.7,5.7
		l-36.3,36.2v47.7h228.4V246.5z M177.1,180c0-3.5,2.8-6.4,6.3-6.4h114.2c3.5,0,6.4,2.8,6.4,6.4v38.1c0,3.5-2.9,6.3-6.4,6.3H183.4
		c-3.5,0-6.3-2.8-6.3-6.3V180z M183.4,275.2H158c-3.5,0-6.4-2.9-6.4-6.4s2.9-6.4,6.4-6.4h25.4c3.5,0,6.4,2.9,6.4,6.4
		S186.9,275.2,183.4,275.2z M253.2,275.2h-25.4c-3.5,0-6.4-2.9-6.4-6.4s2.9-6.4,6.4-6.4h25.4c3.5,0,6.4,2.9,6.4,6.4
		S256.7,275.2,253.2,275.2z M323,275.2h-25.4c-3.5,0-6.4-2.9-6.4-6.4s2.8-6.4,6.4-6.4H323c3.5,0,6.4,2.9,6.4,6.4
		S326.5,275.2,323,275.2z"/>
	<rect x="189.7" y="186.4" class="st0" width="101.5" height="25.4"/>
	<rect x="265.9" y="91.2" class="st0" width="50.7" height="25.4"/>
	<path class="st0" d="M240.5,22.1c-119.3,0-216,96.7-216,216c0,119.3,96.7,216,216,216s216-96.7,216-216
		C456.5,118.8,359.8,22.1,240.5,22.1z M380.1,351.3c0,3.5-2.8,6.4-6.4,6.4H107.3c-3.5,0-6.4-2.8-6.4-6.4v-50.7
		c0-3.5,2.8-6.4,6.4-6.4h6.4v-50.7h0.2c-0.1-1.8,0.4-3.7,1.8-5l36.1-36v-47.8c0-3.5,2.9-6.4,6.4-6.4h126.9v-19.1h-25.4
		c-3.5,0-6.4-2.8-6.4-6.3V84.9c0-3.5,2.9-6.4,6.4-6.4H323c3.5,0,6.4,2.8,6.4,6.4v38.1c0,3.5-2.9,6.3-6.4,6.3h-25.4v19.1H323
		c3.5,0,6.4,2.8,6.4,6.4v47.6l36.1,36.2c1.4,1.4,1.9,3.2,1.8,5h0.2v50.7h6.3c3.5,0,6.4,2.9,6.4,6.4V351.3z"/>
</g>
<g>
	<path class="st0" d="M-591,147.6c-3.1-3.1-7.4-4.9-11.9-4.9c-0.4,0-0.8,0.1-1.1,0.1l-82.8,5.5c-1.4,0.1-2.5,1.2-2.6,2.6l-2.3,34.1
		c1.4,0.3,2.8,0.5,4.3,0.6c10.6,1.1,20.1-2,26.7-8.6c3-3,7.8-3,10.8,0c3,3,3,7.8,0,10.8c-8.6,8.6-20.3,13.2-33.3,13.2
		c-1.8,0-3.8-0.1-5.7-0.3c-1.3-0.1-2.5-0.3-3.8-0.5l-2.2,33.3c-0.3,4.8,1.5,9.5,4.9,13L-575.6,361c4.3,4.3,10.1,6.7,16.3,6.7
		s12-2.4,16.3-6.7l66.4-66.4c4.3-4.3,6.7-10.1,6.7-16.3c0-6.2-2.4-12-6.7-16.3L-591,147.6z M-636.6,229.7c0-17.4,9.5-27.1,21-27.1
		h0.1c12,0,20.1,9.4,20.1,25.9c0,18.3-9.6,27.4-20.9,27.4C-627.1,255.9-636.5,247.1-636.6,229.7z M-617.1,292.5l51.1-90.1h7.5
		l-51.2,90.1H-617.1z M-559.6,291.9c-10.8,0-20.2-8.7-20.3-26.1c0-17.5,9.5-27.3,21-27.3h0.1c12,0,19.9,9.4,19.9,25.9
		C-538.9,282.8-548.5,291.9-559.6,291.9z"/>
	<path class="st0" d="M-604.8,229c0-10.6-3.1-19.4-11.2-19.4h-0.1c-7.2,0-11.1,8.7-11.1,19.7c-0.3,11,3.9,19.5,11.2,19.5
		C-608.3,248.8-604.8,240.5-604.8,229z"/>
	<path class="st0" d="M-559.3,245.6h-0.1c-7.2,0-11.2,8.7-11.2,19.7c-0.1,11.1,4.1,19.5,11.4,19.5c7.8,0,11.2-8.3,11.2-19.8
		C-548.1,254.4-551.2,245.6-559.3,245.6z"/>
	<path class="st0" d="M-602,16.1c-119.3,0-216,96.7-216,216s96.7,216,216,216s216-96.7,216-216S-482.7,16.1-602,16.1z M-465.7,305.5
		l-66.3,66.3c-7.2,7.2-16.9,11.2-27.1,11.2s-19.8-3.9-27.1-11.2l-114.5-114.5c-6.5-6.5-10-15.6-9.3-24.8l2.4-36.8
		c-7.8-3.4-15.2-8.5-21.6-14.8c-11.3-11.3-18.4-25.6-19.8-40.3c-1.5-15.3,3.1-29.1,13-39.1c20-20,55.6-16.9,79.5,6.8
		c3,3,3,7.8,0,10.8c-3,3-7.8,3-10.8,0c-17.9-17.8-43.8-20.9-57.8-6.9c-6.6,6.6-9.7,16.1-8.6,26.7c1.1,11.2,6.6,22.2,15.5,31
		c3.6,3.6,7.6,6.7,11.8,9.1l2-29.4c0.6-9,7.8-16.2,16.8-16.8l82.8-5.5c0.7-0.1,1.4-0.1,2.1-0.1c8.5,0,16.6,3.4,22.6,9.4l114.4,114.5
		c7.3,7.2,11.3,16.8,11.3,27.1C-454.5,288.6-458.5,298.2-465.7,305.5z"/>
</g>
</svg>
