<?xml version="1.0" encoding="utf-8"?>
<!-- Generator: Adobe Illustrator 19.2.0, SVG Export Plug-In . SVG Version: 6.00 Build 0)  -->
<svg version="1.1" id="Layer_1" xmlns="http://www.w3.org/2000/svg" xmlns:xlink="http://www.w3.org/1999/xlink" x="0px" y="0px"
	 viewBox="0 0 512 512" style="enable-background:new 0 0 512 512;" xml:space="preserve">
<style type="text/css">
	.st0{fill:#552B71;}
</style>
<g>
	<g>
		<g>
			<circle class="st0" cx="256" cy="385.9" r="20"/>
			<path class="st0" d="M311.8,116.5H200.2c-6.3,0-11.3,4.9-11.3,10.8v210.9c0,6,5.1,10.8,11.3,10.8h111.6c6.3,0,11.3-4.9,11.3-10.8
				V127.3C323.1,121.3,318,116.5,311.8,116.5z"/>
			<path class="st0" d="M256,0C114.6,0,0,114.6,0,256s114.6,256,256,256s256-114.6,256-256S397.4,0,256,0z M355.6,382.3
				c0,19.6-15.9,35.4-35.4,35.4H191.8c-19.6,0-35.4-15.9-35.4-35.4V128.6c0-19.6,15.9-35.4,35.4-35.4h128.4
				c19.6,0,35.4,15.9,35.4,35.4V382.3z"/>
		</g>
	</g>
</g>
</svg>
