<?xml version="1.0" encoding="utf-8"?>
<!-- Generator: Adobe Illustrator 15.0.2, SVG Export Plug-In . SVG Version: 6.00 Build 0)  -->
<!DOCTYPE svg PUBLIC "-//W3C//DTD SVG 1.1//EN" "http://www.w3.org/Graphics/SVG/1.1/DTD/svg11.dtd">
<svg version="1.1" id="Layer_1" xmlns="http://www.w3.org/2000/svg" xmlns:xlink="http://www.w3.org/1999/xlink" x="0px" y="0px"
	 width="22px" height="19.125px" viewBox="0 0 22 19.125" enable-background="new 0 0 22 19.125" xml:space="preserve">
<g>
	<g>
		<defs>
			<rect id="SVGID_1_" x="1.875" y="2.55" width="18.152" height="14.448"/>
		</defs>
		<clipPath id="SVGID_2_">
			<use xlink:href="#SVGID_1_"  overflow="visible"/>
		</clipPath>
		<path clip-path="url(#SVGID_2_)" fill="#552B71" d="M18.646,2.548h-8.434c-0.752,0-1.362,0.609-1.362,1.361v1.986h2.821
			c1.418,0,2.572,1.155,2.572,2.574v2.223l3.045,1.723c0.057,0.033,0.125,0.025,0.174-0.016c0.049-0.043,0.066-0.109,0.045-0.17
			l-0.84-2.266h1.979c0.752,0,1.361-0.609,1.361-1.362V3.909C20.008,3.157,19.398,2.548,18.646,2.548L18.646,2.548z M18.646,2.548"
			/>
	</g>
	<path fill="#552B71" d="M11.672,7.106H3.236c-0.751,0-1.361,0.61-1.361,1.362v4.692c0,0.752,0.61,1.361,1.361,1.361h1.982
		l-0.842,2.266c-0.021,0.061-0.004,0.129,0.045,0.17c0.029,0.023,0.063,0.035,0.1,0.035c0.024,0,0.05-0.004,0.074-0.018l4.333-2.453
		h2.745c0.75,0,1.359-0.609,1.359-1.361V8.468C13.031,7.716,12.422,7.106,11.672,7.106L11.672,7.106z M11.672,7.106"/>
</g>
</svg>
