<?xml version="1.0" encoding="utf-8"?>
<!-- Generator: Adobe Illustrator 15.0.2, SVG Export Plug-In . SVG Version: 6.00 Build 0)  -->
<!DOCTYPE svg PUBLIC "-//W3C//DTD SVG 1.1//EN" "http://www.w3.org/Graphics/SVG/1.1/DTD/svg11.dtd">
<svg version="1.1" id="Layer_1" xmlns="http://www.w3.org/2000/svg" xmlns:xlink="http://www.w3.org/1999/xlink" x="0px" y="0px"
	 width="39.979px" height="38.008px" viewBox="0 0 39.979 38.008" enable-background="new 0 0 39.979 38.008" xml:space="preserve">
<circle fill="#FFB301" cx="20.02" cy="19.286" r="18.441"/>
<path fill="#FFFFFF" d="M28.396,8.393H11.642c-1.334,0-2.418,1.082-2.418,2.417v16.956c0,1.334,1.084,2.414,2.418,2.414h16.755
	c1.336,0,2.416-1.08,2.416-2.414V10.81C30.814,9.475,29.732,8.393,28.396,8.393z M28.185,13.08c0,0-1.396-0.369-2.084-0.237
	s-1.084,0.555-1.084,1.611c0,0.199,0,0.848,0,1.769h3.168l-0.344,2.826h-2.824c0,4.355,0,10.191,0,10.191h-3.75c0,0,0-5.76,0-10.191
	h-1.955v-2.826h1.955c0-1.12,0-1.917,0-2.138c0-1.058-0.08-1.559,0.369-2.377c0.447-0.819,1.717-1.902,3.908-1.875
	c2.193,0.026,3.117,0.238,3.117,0.238L28.185,13.08z"/>
</svg>
