<?xml version="1.0" encoding="utf-8"?>
<!-- Generator: Adobe Illustrator 15.0.2, SVG Export Plug-In . SVG Version: 6.00 Build 0)  -->
<!DOCTYPE svg PUBLIC "-//W3C//DTD SVG 1.1//EN" "http://www.w3.org/Graphics/SVG/1.1/DTD/svg11.dtd">
<svg version="1.1" id="Layer_1" xmlns="http://www.w3.org/2000/svg" xmlns:xlink="http://www.w3.org/1999/xlink" x="0px" y="0px"
	 width="22px" height="19.125px" viewBox="0 0 22 19.125" enable-background="new 0 0 22 19.125" xml:space="preserve">
<g>
	<path fill="#552B71" d="M9.455,12.451l0.453,1.131c-0.438,0.176-0.876,0.309-1.302,0.398l-0.248-1.193
		C8.715,12.713,9.084,12.6,9.455,12.451L9.455,12.451z M5.828,13.912c0.446,0.129,0.917,0.197,1.397,0.205l0.02-1.219
		c-0.374-0.006-0.737-0.059-1.08-0.156L5.828,13.912z M15.427,11.785c0.351,0.068,0.693,0.189,1.019,0.357l0.56-1.084
		c-0.429-0.221-0.88-0.379-1.343-0.469L15.427,11.785z M12.884,10.785l0.364,1.162c0.372-0.117,0.74-0.191,1.095-0.219l-0.098-1.215
		C13.8,10.549,13.342,10.641,12.884,10.785L12.884,10.785z M10.927,11.701c-0.137,0.086-0.271,0.166-0.403,0.238l0.593,1.064
		c0.148-0.084,0.301-0.172,0.453-0.266c0.21-0.131,0.414-0.246,0.615-0.348l-0.553-1.086C11.402,11.422,11.167,11.553,10.927,11.701
		L10.927,11.701z M14.296,4.106c0,0.498-0.119,0.969-0.331,1.383l-2.717,5.321c0,0-2.738-5.365-2.749-5.388
		C8.308,5.025,8.2,4.577,8.2,4.106c0-1.683,1.364-3.047,3.048-3.047S14.296,2.423,14.296,4.106L14.296,4.106z M13.076,4.106
		c0-1.009-0.818-1.828-1.828-1.828S9.42,3.097,9.42,4.106s0.818,1.829,1.828,1.829S13.076,5.115,13.076,4.106L13.076,4.106z
		 M17.343,7.153h-2.859l-0.622,1.219h2.603l1.315,3.948l-0.42,0.463c0.447,0.406,0.68,0.777,0.681,0.779l0.129-0.078l1.14,3.42
		H3.187l1.222-3.66c0.042,0.031,0.076,0.059,0.124,0.088l0.647-1.029c-0.146-0.092-0.265-0.184-0.369-0.268l1.222-3.663h2.604
		C8.378,7.868,8.175,7.469,8.014,7.153h-2.86L1.496,18.125H21L17.343,7.153z M17.343,7.153"/>
</g>
</svg>
