<?xml version="1.0" encoding="utf-8"?>
<!-- Generator: Adobe Illustrator 15.0.2, SVG Export Plug-In . SVG Version: 6.00 Build 0)  -->
<!DOCTYPE svg PUBLIC "-//W3C//DTD SVG 1.1//EN" "http://www.w3.org/Graphics/SVG/1.1/DTD/svg11.dtd">
<svg version="1.1" id="Layer_1" xmlns="http://www.w3.org/2000/svg" xmlns:xlink="http://www.w3.org/1999/xlink" x="0px" y="0px"
	 width="22px" height="19.125px" viewBox="0 0 22 19.125" enable-background="new 0 0 22 19.125" xml:space="preserve">
<g>
	<path fill="#552B71" d="M18.727,2.875h-12c-0.563,0-0.961,0.32-1.281,0.719l-4.32,6.48l4.32,6.48
		c0.32,0.398,0.801,0.719,1.359,0.719h11.922c0.879,0,1.598-0.719,1.598-1.598V4.477C20.324,3.594,19.605,2.875,18.727,2.875
		L18.727,2.875z M8.324,11.273c-0.641,0-1.199-0.559-1.199-1.199s0.559-1.199,1.199-1.199s1.199,0.559,1.199,1.199
		S8.965,11.273,8.324,11.273L8.324,11.273z M12.324,11.273c-0.641,0-1.199-0.559-1.199-1.199s0.559-1.199,1.199-1.199
		s1.199,0.559,1.199,1.199S12.965,11.273,12.324,11.273L12.324,11.273z M16.324,11.273c-0.641,0-1.199-0.559-1.199-1.199
		s0.559-1.199,1.199-1.199s1.199,0.559,1.199,1.199S16.965,11.273,16.324,11.273L16.324,11.273z M16.324,11.273"/>
</g>
</svg>
