<?xml version="1.0" encoding="utf-8"?>
<!-- Generator: Adobe Illustrator 19.2.0, SVG Export Plug-In . SVG Version: 6.00 Build 0)  -->
<svg version="1.1" id="Layer_1" xmlns="http://www.w3.org/2000/svg" xmlns:xlink="http://www.w3.org/1999/xlink" x="0px" y="0px"
	 viewBox="0 0 481 476.2" style="enable-background:new 0 0 481 476.2;" xml:space="preserve">
<style type="text/css">
	.st0{fill:#552B71;}
</style>
<g>
	<path class="st0" d="M251.4,153.6c-3.1-3.1-7.4-4.9-11.9-4.9c-0.4,0-0.8,0.1-1.1,0.1l-82.8,5.5c-1.4,0.1-2.5,1.2-2.6,2.6l-2.3,34.1
		c1.4,0.3,2.8,0.5,4.3,0.6c10.6,1.1,20.1-2,26.7-8.6c3-3,7.8-3,10.8,0c3,3,3,7.8,0,10.8c-8.6,8.6-20.3,13.2-33.3,13.2
		c-1.8,0-3.8-0.1-5.7-0.3c-1.3-0.1-2.5-0.3-3.8-0.5l-2.2,33.3c-0.3,4.8,1.5,9.5,4.9,13L266.9,367c4.3,4.3,10.1,6.7,16.3,6.7
		s12-2.4,16.3-6.7l66.4-66.4c4.3-4.3,6.7-10.1,6.7-16.3c0-6.2-2.4-12-6.7-16.3L251.4,153.6z M205.8,235.7c0-17.4,9.5-27.1,21-27.1
		h0.1c12,0,20.1,9.4,20.1,25.9c0,18.3-9.6,27.4-20.9,27.4C215.3,261.9,206,253.1,205.8,235.7z M225.4,298.5l51.1-90.1h7.5
		l-51.2,90.1H225.4z M282.9,297.9c-10.8,0-20.2-8.7-20.3-26.1c0-17.5,9.5-27.3,21-27.3h0.1c12,0,19.9,9.4,19.9,25.9
		C303.6,288.8,294,297.9,282.9,297.9z"/>
	<path class="st0" d="M237.7,235c0-10.6-3.1-19.4-11.2-19.4h-0.1c-7.2,0-11.1,8.7-11.1,19.7c-0.3,11,3.9,19.5,11.2,19.5
		C234.2,254.8,237.7,246.5,237.7,235z"/>
	<path class="st0" d="M283.1,251.6H283c-7.2,0-11.2,8.7-11.2,19.7c-0.1,11.1,4.1,19.5,11.4,19.5c7.8,0,11.2-8.3,11.2-19.8
		C294.4,260.4,291.3,251.6,283.1,251.6z"/>
	<path class="st0" d="M240.5,22.1c-119.3,0-216,96.7-216,216s96.7,216,216,216s216-96.7,216-216S359.8,22.1,240.5,22.1z
		 M376.7,311.5l-66.3,66.3c-7.2,7.2-16.9,11.2-27.1,11.2s-19.8-3.9-27.1-11.2L141.7,263.3c-6.5-6.5-10-15.6-9.3-24.8l2.4-36.8
		c-7.8-3.4-15.2-8.5-21.6-14.8c-11.3-11.3-18.4-25.6-19.8-40.3c-1.5-15.3,3.1-29.1,13-39.1c20-20,55.6-16.9,79.5,6.8
		c3,3,3,7.8,0,10.8c-3,3-7.8,3-10.8,0c-17.9-17.8-43.8-20.9-57.8-6.9c-6.6,6.6-9.7,16.1-8.6,26.7c1.1,11.2,6.6,22.2,15.5,31
		c3.6,3.6,7.6,6.7,11.8,9.1l2-29.4c0.6-9,7.8-16.2,16.8-16.8l82.8-5.5c0.7-0.1,1.4-0.1,2.1-0.1c8.5,0,16.6,3.4,22.6,9.4l114.4,114.5
		c7.3,7.2,11.3,16.8,11.3,27.1C387.9,294.6,384,304.2,376.7,311.5z"/>
</g>
</svg>
