<?xml version="1.0" encoding="utf-8"?>
<!-- Generator: Adobe Illustrator 19.2.0, SVG Export Plug-In . SVG Version: 6.00 Build 0)  -->
<svg version="1.1" id="Layer_1" xmlns="http://www.w3.org/2000/svg" xmlns:xlink="http://www.w3.org/1999/xlink" x="0px" y="0px"
	 viewBox="0 0 512 512" style="enable-background:new 0 0 512 512;" xml:space="preserve">
<style type="text/css">
	.st0{fill:#FFFFFF;}
</style>
<g>
	<g>
		<g>
			<circle class="st0" cx="256" cy="266.4" r="48.1"/>
			<path class="st0" d="M256,0C114.6,0,0,114.6,0,256s114.6,256,256,256s256-114.6,256-256S397.4,0,256,0z M154.9,114.9l36.3,31.9
				c8.2-4.4,16.9-8,26-10.7l3.1-48.3h71.2l3.1,48.3c9.1,2.7,17.8,6.3,26,10.7l36.3-31.9l50.4,50.4l-31.9,36.3
				c4.4,8.2,8,16.9,10.7,26l48.3,3.1l0,71.3l-48.3,3.1c-2.7,9.1-6.3,17.8-10.7,26l31.9,36.3L357,417.8l-36.3-31.9
				c-8.2,4.4-16.9,8-26,10.7l-3.1,48.3l-71.2,0l-3.1-48.3c-9.1-2.7-17.8-6.3-26-10.7l-36.3,31.9l-50.4-50.4l31.9-36.3
				c-4.4-8.2-8-16.9-10.7-26L77.5,302v-71.2l48.3-3.1c2.7-9.1,6.3-17.8,10.7-26l-31.9-36.3"/>
		</g>
	</g>
</g>
</svg>
