<?xml version="1.0" encoding="utf-8"?>
<!-- Generator: Adobe Illustrator 19.2.0, SVG Export Plug-In . SVG Version: 6.00 Build 0)  -->
<svg version="1.1" id="Layer_1" xmlns="http://www.w3.org/2000/svg" xmlns:xlink="http://www.w3.org/1999/xlink" x="0px" y="0px"
	 viewBox="0 0 512 512" style="enable-background:new 0 0 512 512;" xml:space="preserve">
<style type="text/css">
	.st0{fill:#552B71;}
</style>
<g>
	<g>
		<g>
			<circle class="st0" cx="256.7" cy="188.7" r="41.2"/>
			<path class="st0" d="M256,0C114.6,0,0,114.6,0,256c0,141.4,114.6,256,256,256s256-114.6,256-256C512,114.6,397.4,0,256,0z
				 M255.5,117.2c0.2,0,0.4,0,0.5,0c0.2,0,0.4,0,0.5,0c43.1,0.7,78.2,36.3,78.2,79.5c0,52.8-56.4,106.2-78.8,125.3
				c-1.5-1.3-3.2-2.7-4.9-4.3c0,0-0.1,0-0.1-0.1c-24.8-22-73.7-71.8-73.7-120.9C177.2,153.5,212.3,117.9,255.5,117.2z M257.1,396.4
				c-47.2,0-95-13.5-95-39.4c0-18.2,23.5-30.2,53.9-35.8c5.9,5.9,11.4,11.1,16.3,15.4c-33.1,3.7-52.5,14.2-52.5,20.4
				c0,7.7,29.3,21.7,77.3,21.7s77.3-14.1,77.3-21.7c0-6.4-20.2-17.1-54.5-20.6c4.9-4.4,10.5-9.6,16.4-15.6
				c31.3,5.4,55.8,17.6,55.8,36.2C352.1,382.8,304.3,396.4,257.1,396.4z"/>
		</g>
	</g>
</g>
</svg>
