<?xml version="1.0" encoding="utf-8"?>
<!-- Generator: Adobe Illustrator 15.0.2, SVG Export Plug-In . SVG Version: 6.00 Build 0)  -->
<!DOCTYPE svg PUBLIC "-//W3C//DTD SVG 1.1//EN" "http://www.w3.org/Graphics/SVG/1.1/DTD/svg11.dtd">
<svg version="1.1" id="Layer_1" xmlns="http://www.w3.org/2000/svg" xmlns:xlink="http://www.w3.org/1999/xlink" x="0px" y="0px"
	 width="20.125px" height="19.125px" viewBox="0 0 20.125 19.125" enable-background="new 0 0 20.125 19.125" xml:space="preserve">
<g>
	<path fill="#552B71" d="M15.848,11.922c-1.02,0-1.914,0.484-2.5,1.228l-5.441-2.782c0.07-0.265,0.121-0.539,0.121-0.828
		c0-0.316-0.059-0.613-0.145-0.898l5.414-2.77c0.586,0.778,1.504,1.282,2.551,1.282c1.773,0,3.203-1.43,3.203-3.2
		c0-1.769-1.43-3.203-3.203-3.203c-1.766,0-3.199,1.434-3.199,3.203c0,0.289,0.051,0.563,0.121,0.828L7.332,7.563
		C6.746,6.821,5.848,6.336,4.828,6.336c-1.77,0-3.203,1.434-3.203,3.203c0,1.771,1.434,3.203,3.203,3.203
		c1.047,0,1.965-0.511,2.551-1.289l5.414,2.771c-0.086,0.288-0.148,0.586-0.148,0.901c0,1.771,1.438,3.203,3.203,3.203
		c1.77,0,3.203-1.433,3.203-3.203C19.051,13.356,17.617,11.922,15.848,11.922L15.848,11.922z M15.848,11.922"/>
</g>
</svg>
