<?xml version="1.0" encoding="utf-8"?>
<!-- Generator: Adobe Illustrator 15.0.2, SVG Export Plug-In . SVG Version: 6.00 Build 0)  -->
<!DOCTYPE svg PUBLIC "-//W3C//DTD SVG 1.1//EN" "http://www.w3.org/Graphics/SVG/1.1/DTD/svg11.dtd">
<svg version="1.1" id="Layer_1" xmlns="http://www.w3.org/2000/svg" xmlns:xlink="http://www.w3.org/1999/xlink" x="0px" y="0px"
	 width="39.979px" height="38.008px" viewBox="-3.866 -1.552 39.979 38.008" enable-background="new -3.866 -1.552 39.979 38.008"
	 xml:space="preserve">
<circle fill="#FFB301" cx="16.153" cy="17.734" r="18.441"/>
<path fill="#FFFFFF" d="M28.686,9.961c-0.923,0.409-1.913,0.686-2.953,0.809c1.062-0.637,1.877-1.645,2.261-2.844
	C27,8.514,25.9,8.943,24.728,9.173c-0.938-0.999-2.274-1.624-3.753-1.624c-2.839,0-5.144,2.303-5.144,5.143
	c0,0.403,0.046,0.795,0.134,1.171c-4.274-0.214-8.063-2.262-10.599-5.372c-0.442,0.76-0.698,1.642-0.698,2.584
	c0,1.785,0.908,3.358,2.288,4.281c-0.843-0.027-1.636-0.259-2.328-0.643c-0.001,0.021-0.001,0.043-0.001,0.065
	c0,2.491,1.771,4.569,4.126,5.042C8.321,19.938,7.866,20,7.398,20c-0.332,0-0.654-0.031-0.968-0.092
	c0.655,2.043,2.554,3.531,4.803,3.57c-1.76,1.381-3.977,2.201-6.386,2.201c-0.415,0-0.824-0.023-1.227-0.07
	c2.274,1.459,4.979,2.309,7.882,2.309c9.46,0,14.632-7.834,14.632-14.63c0-0.222-0.005-0.444-0.015-0.664
	C27.124,11.897,27.996,10.992,28.686,9.961z"/>
</svg>
