<?xml version="1.0" encoding="utf-8"?>
<!-- Generator: Adobe Illustrator 19.2.0, SVG Export Plug-In . SVG Version: 6.00 Build 0)  -->
<svg version="1.1" id="Capa_1" xmlns="http://www.w3.org/2000/svg" xmlns:xlink="http://www.w3.org/1999/xlink" x="0px" y="0px"
	 viewBox="0 0 512 512" style="enable-background:new 0 0 512 512;" xml:space="preserve">
<style type="text/css">
	.st0{fill:#552B71;}
</style>
<g>
	<g>
		<path class="st0" d="M256,0C114.6,0,0,114.6,0,256s114.6,256,256,256s256-114.6,256-256S397.4,0,256,0z M256,466.3
			C140,466.3,45.7,372,45.7,256S140,45.7,256,45.7S466.3,140,466.3,256C466.3,372,372,466.3,256,466.3z"/>
		<path class="st0" d="M147.4,194.3H94.7c-5.2,13.6-8.8,27.9-10.4,42.9h58.7C143.7,222.5,145.2,208.2,147.4,194.3z"/>
		<path class="st0" d="M114.8,156.7h40.7c4.5-16,10.1-31,16.7-44.5c1.7-3.5,3.5-6.8,5.4-10.1C152.5,115,131,133.8,114.8,156.7z"/>
		<path class="st0" d="M364.6,317.7h52.7c5.2-13.6,8.8-27.9,10.4-42.9h-58.7C368.3,289.5,366.8,303.8,364.6,317.7z"/>
		<path class="st0" d="M368.9,237.2h58.7c-1.6-14.9-5.2-29.3-10.4-42.9h-52.7C366.8,208.2,368.3,222.5,368.9,237.2z"/>
		<path class="st0" d="M339.7,399.7c-1.7,3.5-3.5,6.8-5.4,10.1c25.1-12.8,46.7-31.7,62.8-54.6h-40.7
			C352,371.3,346.4,386.3,339.7,399.7z"/>
		<path class="st0" d="M356.5,156.7h40.7c-16.2-22.9-37.7-41.7-62.8-54.6c1.8,3.3,3.7,6.6,5.4,10.1
			C346.4,125.7,352,140.7,356.5,156.7z"/>
		<path class="st0" d="M155.5,355.3h-40.7c16.2,22.9,37.7,41.7,62.8,54.6c-1.8-3.3-3.7-6.6-5.4-10.1
			C165.6,386.3,160,371.3,155.5,355.3z"/>
		<path class="st0" d="M143.1,274.8H84.3c1.6,14.9,5.2,29.3,10.4,42.9h52.7C145.2,303.8,143.7,289.5,143.1,274.8z"/>
		<path class="st0" d="M274.8,89.5v67.2h42.5C306.6,123.7,291,100.1,274.8,89.5z"/>
		<path class="st0" d="M194.7,156.7h42.5V89.5C221,100.1,205.4,123.7,194.7,156.7z"/>
		<path class="st0" d="M185.4,317.7h51.8v-42.9h-56.5C181.4,289.9,183.1,304.3,185.4,317.7z"/>
		<path class="st0" d="M180.7,237.2h56.5v-42.9h-51.8C183.1,207.7,181.4,222.1,180.7,237.2z"/>
		<path class="st0" d="M274.8,194.3v42.9h56.5c-0.7-15.1-2.4-29.5-4.8-42.9H274.8z"/>
		<path class="st0" d="M274.8,317.7h51.8c2.4-13.4,4-27.7,4.8-42.9h-56.5V317.7z"/>
		<path class="st0" d="M237.2,422.5v-67.2h-42.5C205.4,388.3,221,411.9,237.2,422.5z"/>
		<path class="st0" d="M274.8,422.5c16.2-10.6,31.8-34.2,42.5-67.2h-42.5V422.5z"/>
	</g>
</g>
</svg>
