<?xml version="1.0" encoding="utf-8"?>
<!-- Generator: Adobe Illustrator 19.2.0, SVG Export Plug-In . SVG Version: 6.00 Build 0)  -->
<svg version="1.1" id="Layer_1" xmlns="http://www.w3.org/2000/svg" xmlns:xlink="http://www.w3.org/1999/xlink" x="0px" y="0px"
	 viewBox="0 0 41.9 37.9" style="enable-background:new 0 0 41.9 37.9;" xml:space="preserve">
<style type="text/css">
	.st0{fill:#F05C22;}
	.st1{fill:#FFFFFF;}
</style>
<g>
	<g>
		<circle class="st0" cx="21.6" cy="19.1" r="13.6"/>
		<path class="st0" d="M38.5,18.7c0.1-0.7-0.1-1.4-0.6-1.8c-0.6-0.6-1.6-0.8-2.6-0.6c-0.1,0-0.2,0-0.3,0.1c-0.1-0.2-0.3-0.4-0.5-0.5
			c0,0,0,0,0,0c0-0.2,0-0.3,0-0.5c-0.1-0.3-0.2-0.5-0.3-0.7c0.3,0.1,0.4,0.2,0.5,0.3c0.1,0.4,0.5,0.7,0.9,0.7c0.5,0.1,1-0.2,1.2-0.7
			c0.7-1.5,0.3-2.7-0.1-3.3c-0.7-1-2-1.7-3.8-2.1c0.2-0.6,0.1-1.2-0.4-1.6c0.3-0.6,0.6-1.3,0.8-1.7c0.3-0.6,0.1-1.4-0.5-1.8
			c-0.2-0.1-0.5-0.2-0.8-0.2l0,0c-0.3,0-0.7-0.1-1-0.1c-0.1-0.1-0.3-0.2-0.5-0.3c-0.4-0.2-0.9-0.2-1.4-0.1c-0.5,0.1-0.9,0.3-1.4,0.6
			c0-0.1-0.1-0.1-0.1-0.2c-0.3-0.4-0.8-0.6-1.3-0.5l-1,0.2c-0.4,0.1-0.7,0.3-0.9,0.5c-0.1-0.2-0.3-0.3-0.5-0.5
			c-0.5-0.3-1.2-0.2-1.7,0.2C22,4.2,22,4.3,21.9,4.4c0,0,0,0,0,0c-0.4-0.3-0.8-0.5-1.3-0.5c0-0.4-0.1-0.7-0.3-1
			c-0.4-0.6-1-0.9-1.8-0.9c-0.1,0-0.3,0-0.4,0c-0.7,0.1-1.4,0.6-1.8,1.4c-0.1,0.2-0.2,0.4-0.2,0.5c-0.3-0.1-0.6-0.2-1-0.1
			c-0.4,0.1-0.8,0.3-1.2,0.7c-0.1,0-0.3,0-0.4,0L6.9,6.3C6.6,6,6.1,5.9,5.7,5.9c-1.3,0-2.4,1-2.4,2.3c0,1.3,1.1,2.3,2.4,2.3
			c0.2,0,0.4,0,0.6-0.1c0,0,0.1,0,0.1,0c0.4-0.1,0.9-0.3,1.5-0.6c0.1,0,0.2-0.1,0.3-0.1c-1.4,2.3-2.7,5.5-2.5,9.5
			c-0.7,0.2-1.2,0.9-1.2,1.6c0,0.6,0.3,1.1,0.7,1.4c-0.7,1.9-0.9,3.8-0.4,5.3c0.4,1.3,1.1,2.2,2.2,2.7c0.5,0.2,1.1,0.4,1.7,0.4
			c0.6,0,1.1-0.1,1.7-0.3c-0.7,0.9-1.1,1.9-1.1,2.9c0.1,1.5,1,2.3,1.3,2.5c0.3,0.2,0.6,0.3,0.9,0.3c0.1,0,0.2,0,0.3,0
			c0.4-0.1,0.7-0.3,0.9-0.5c0.1-0.1,0.2-0.3,0.3-0.4c2.9-5.8,10-7.8,15.1-8.7c2.4-0.5,4.4-0.5,5.1-0.5c0.2,0,0.3,0,0.4,0
			c0.1,0,0.1,0,0.2,0c0.2,0,0.4,0,0.6-0.1c1.8-0.4,3-1.8,3.4-3c0.3-1,0.2-1.9-0.3-2.7C38.1,19.7,38.4,19.2,38.5,18.7z M25.3,13.9
			c-0.7,0.2-1.2,0.4-1.5,0.6c-0.2,0.1-0.4,0.3-0.5,0.4c-0.7-0.1-1.7,0.2-2.2,1c-0.1,0.2-0.2,0.5-0.3,0.7c-0.2,0-0.4,0-0.6,0.1
			c-0.1,0-0.3,0.1-0.6,0.2c0-0.2,0.1-0.6,0.1-1c0-0.1,0-0.8-0.5-1.4c2.1-0.5,4.2-0.7,6.1-0.8C25.4,13.8,25.4,13.9,25.3,13.9z
			 M12.4,9.5c0,0.5,0.1,1,0.3,1.5c-0.1,0-0.2,0.1-0.3,0.1c-0.6,0.4-1.1,1.2-0.9,2.2c0,0.1,0.1,0.3,0.2,0.4c-0.5,0.3-0.9,0.5-1.3,0.7
			C10.6,13.4,11.1,11.7,12.4,9.5z M14.9,15.9c-0.1,0.3-0.1,0.6-0.1,0.8l0,0.1c-0.2-0.2-0.4-0.3-0.5-0.3c-0.1-0.1-0.3-0.1-0.4-0.1
			C14.2,16.2,14.5,16,14.9,15.9z M9.8,21.4c0.7,0.1,1.4,0.4,1.9,0.7l0.2,0.1c0.4,0.2,0.9,0.3,1.3,0.3c-0.7,2.1-2.4,3.4-3.3,3
			c-0.1,0-0.4-0.2-0.6-0.7C8.9,24,9.2,22.6,9.8,21.4z"/>
	</g>
	<path class="st1" d="M14.7,6.2c0.2,0,0.4-0.1,0.5-0.3c0.2-0.2,0.3-0.4,0.4-0.6c0.1-0.3,0.1-0.5-0.1-0.7c-0.1-0.1-0.3-0.2-0.4-0.1
		c-0.3,0.1-0.5,0.3-0.7,0.6c-0.3,0.4-0.3,0.8-0.1,1C14.4,6.2,14.6,6.2,14.7,6.2z"/>
	<path class="st1" d="M18.3,24.5l-0.1-1.7c-0.6,0.4-1,1-1.5,1.4c0.1,0.5-0.1,1.1-0.3,1.2c0,0,0,0-0.1,0c-0.2,0-0.3,0-0.3-0.3
		c0-0.4,0.1-0.8,0.5-1.2v0c0.3-0.4,1-1.1,2.2-1.9c2.2-1.4,2.5-1.7,2.5-1.7s0,0,0,0c0.5-0.4,0.9-0.8,0.9-1.1c0.1-0.5,0.1-0.9-0.2-1.2
		c-0.3-0.4-0.7-0.4-0.8-0.4c-0.1,0-0.3,0-0.5,0C20,17.7,19,18.1,18.8,20c0,0.3,0,0.6,0,0.9c-0.2,0.1-0.5,0.3-0.8,0.5
		c-0.4-4.4-0.3-5.5-0.2-5.8c0.1,0.1,0.2,0.6,0.2,0.6c0,0.2,0,0.3,0.2,0.4c0.1,0.1,0.2,0.1,0.3,0.1c0.1,0,0.2-0.1,0.2-0.1
		c0,0,0-0.1,0-0.1c0,0,0.1-0.4,0.1-1c0,0,0-1.2-1.1-1c0,0,0,0,0,0c-1.3,0.3-1.6,1.3-1.6,1.7c0,0,0,0,0,0l0.4,6.4
		c-0.3,0.3-0.6,0.6-0.8,0.9c-1,1.2-0.7,2.1-0.5,2.3c0.3,0.4,0.8,0.7,1.4,0.6c0,0,0,0,0.1,0C17.6,26.2,18.2,25.5,18.3,24.5
		 M21.2,18.4C21.2,18.4,21.2,18.4,21.2,18.4c0.1,0.1,0.2,0.3,0.2,0.5c0,0.1-0.2,0.5-1.1,1.1C20.5,18.6,21.1,18.4,21.2,18.4z"/>
	<path class="st1" d="M28.3,14.3c-1,0.1-3,0.4-3.8,0.9c-1.1,0.7,0,1.2,0.4,1c0.3-0.1,1.7-0.6,3.1-0.7C28.2,15.2,28.4,14.6,28.3,14.3
		z"/>
	<path class="st1" d="M21.9,21.6c-0.7,0.9-1.2,0.6-1.2,0.6c-0.2-0.2-0.3-0.5-0.4-1c-0.2,0.2-0.4,0.3-0.7,0.5
		c-0.1,0.1-0.3,0.2-0.6,0.4c0.3,0.8,0.7,1,0.8,1.1c0.1,0.1,0.6,0.3,1.2,0.2c0.9-0.2,2-0.9,2.4-2.4c0.3-0.9,0.5-1.8,0.6-2.8
		c0,0,0,0.1,0,0.1c0,0,0.3,0.1,0.4,0.3c0.1,0.2-0.5,2.3-0.4,2.8c0.1,0.5,0.2,1.2,1.6,0.9c0.1,0,0.1,0,0.2,0c0.5-0.1,1-0.5,1.4-1.1
		c0.2,0.4,0.5,0.6,0.8,0.7c0.1,0,0.2,0,0.3,0c0.3-0.1,0.6-0.3,0.9-0.7c0.2,0.2,0.4,0.3,0.6,0.3c0.1,0,0.3,0,0.5,0
		c0.4-0.1,0.8-0.3,1.2-0.7c0,0.1,0,0.2,0.1,0.3c0.1,0.2,0.2,0.3,0.4,0.4c0.2,0.1,0.5,0.1,0.7,0.1c0.2,0,0.3-0.1,0.5-0.2
		c0,0,0,0,0.1,0c0,0,0.1,0,0.1-0.1c0,0,0,0,0,0c0,0,0,0,0,0c0.2-0.1,0.3-0.3,0.4-0.4c0.3-0.3,0.5-0.6,0.6-0.9
		c0.2,0.2,0.3,0.3,0.4,0.3c0.5,0.3,0.9,0.6,0.6,1.6c-0.2,0.6-0.8,0.8-1.3,0.9c-0.3,0.1-0.5,0.1-0.6,0.1c-0.2,0-4.3-0.2-8.7,0.7
		c-2.6,0.5-4.3,1-6.1,2l0,0c-0.1,0.5-0.5,1.2-1.2,1.6c-0.5,0.3-1,0.3-1.5,0.2c-3.3,1.9-5.3,3.9-5.2,5.5c0.1,1.1,0.8,1.6,0.8,1.6
		c0.1,0.1,0.2,0.1,0.3,0.1c0.2,0,0.3-0.2,0.3-0.2l0,0c0,0,0,0,0.1-0.1c3.3-6.4,11.2-8.4,15.9-9.4c3.3-0.6,5.8-0.5,5.8-0.5
		c0,0,0,0,0,0c0.2,0,0.3,0,0.5-0.1c1.4-0.3,2.3-1.3,2.5-2.2c0.3-1.1-0.1-2-0.9-2.5c0,0,0,0,0,0c0,0-1.1-0.5-1.1-0.7
		c-0.1-0.2-0.1-0.3-0.1-0.3c0.1-0.2,0.4-0.4,0.6-0.4c0.3,0,0.7,0.1,0.9,0.1c0,0.1,0,0.1,0,0.2c0.1,0.3,0.4,0.4,0.7,0.4
		c0.2,0,0.4-0.2,0.4-0.4c0.1-0.3,0-0.6-0.3-0.8c-0.3-0.3-1-0.4-1.6-0.3c-0.6,0.1-1.2,0.4-1.4,0.9c-0.3,0.4-0.3,0.8-0.3,1.1
		c-0.4,0.9-0.7,1.2-0.8,1.2c0,0,0,0-0.1,0c0,0,0,0,0,0c0-0.3,0.5-1.6,1.1-3.4c0-0.1,0-0.3-0.1-0.3c-0.1,0-0.1,0-0.2,0
		c0,0-0.1,0-0.1,0c-0.2,0-0.6,0-0.9,0c-0.1,0-0.2,0-0.2,0.1c0,0-0.1,0-0.1,0.1c-0.1-0.2-0.3-0.3-0.5-0.4c-0.2-0.1-0.4-0.1-0.6,0
		c-0.8,0.1-1.6,0.9-2.1,2c-0.4,0.8-0.5,1.5-0.4,2.1c0,0-0.2,0.5-0.7,0.5c-0.5,0-0.1-1.6-0.1-1.6c0.6-1.9,0.9-2.6,1-3.4
		c0-0.1,0-0.2,0.1-0.3c0-0.1,0-0.1,0-0.2c1.2,0,2.4,0.2,3.4,0.8c0.1,0,0.1,0,0.2,0c0.2-0.1,0.6-0.6,0.5-1.1
		c-0.2-0.9-1.4-1.2-3.9-1.1c0-0.4-0.2-0.7-0.5-1c0,0-0.3-0.3-0.9-0.3c-3.1,0-1.2,6.8-1.2,6.8l0.7-2.3c0.1-4,0.8-3.6,0.8-3.6
		c0.7,0.4-1.2,6-1.2,6c-0.4,1-1.3,2.4-1.5,1.6c-0.1-0.3,0.3-2.3,0.3-2.3c0.2-1-0.9-1.3-1.8-1.7c0-0.1,0-0.2,0.1-0.4
		c0.1-0.8-0.3-1.1-0.7-1.3c-0.3-0.1-0.9,0-1.2,0.4c-0.5,0.8,0,1.4,0.8,1.8C23.1,18,22.5,20.8,21.9,21.6z M22.8,16.4
		c0.1-0.2,0.5-0.4,0.5,0.1c0,0.2-0.1,0.6-0.1,0.8C22.4,17,22.7,16.5,22.8,16.4z M31.8,18.6c-0.3,0.7-0.8,1.2-1.3,1.3
		c-0.1,0-0.1,0-0.2,0c-0.1,0-0.2-0.1-0.2-0.2c-0.1-0.3-0.1-0.8,0.2-1.4c0.3-0.7,0.9-1.1,1.2-1.1c0.1,0,0.1,0,0.2,0
		c0.1,0,0.2,0.1,0.2,0.2C32.1,17.6,32.1,18.1,31.8,18.6z"/>
	<path class="st1" d="M22.6,10.8c-5.5,1.1-9.8,3.3-11.8,4.6c0,0,0,0,0,0s-0.6,0.3-1.1,0.7c-0.1,0.1-0.2,0.1-0.2,0.1s0,0,0,0
		c-0.4,0.3-0.9,0.6-1,0.7c-0.2,0.2,0.3-0.5,0.9-1.1c-0.1-1-0.1-4.3,3.6-9.4c0.4-0.5,0.9-1.2,0.9-1.2l-7,1.8c-0.2-0.3-0.6-0.5-1-0.5
		c-0.7,0-1.2,0.5-1.2,1.2c0,0.6,0.5,1.2,1.2,1.2C5.9,9.1,6.1,9,6.2,9l0,0c0,0,0,0,0,0c0,0,0,0,0,0c1.3-0.5,4.5-1.8,5.6-2
		c-2.1,2-5,6-4.7,11.8c0.1,0.4,0.5,0.2,0.7,0.1c7-5.6,18.1-7.7,24.2-6.7c4.2,0.7,3.7,1.9,3.7,1.9C37.4,10.5,31.6,9.1,22.6,10.8z"/>
	<circle class="st1" cx="6.5" cy="20.5" r="0.6"/>
	<path class="st1" d="M15.4,18.9c-0.1-0.5-0.4-0.9-0.7-1.2c-0.1-0.1-0.2-0.2-0.3-0.2c-0.2-0.2-0.4-0.3-0.4-0.3
		c-1.5-0.7-3.6,0.1-5.3,2c-0.7,0.2-1.5,0.5-2.3,1.1c-0.2,0.2-0.2,0.4-0.1,0.6c0.2,0.2,0.4,0.2,0.6,0.1c0.2-0.2,0.4-0.3,0.6-0.4
		c-2,3.3-2.1,7.2,0.3,8.3c2.4,1.1,5.7-1.4,7.2-5C15.8,22,15.8,20.2,15.4,18.9z M13.3,18c0.4,0.2,0.7,0.4,1,0.8
		c0.1-0.3,0.2-0.7,0.2-0.7c0.3,0.6,0,1.3,0,1.3s0,0,0,0c-0.1,0.2-0.2,0.4-0.4,0.6c-0.2,0.1-0.6,0.3-1,0.1L12.8,20
		c-0.6-0.3-1.6-0.8-2.7-0.9C11.1,18,12.3,17.6,13.3,18z M14.5,22.6c-0.8,2.6-3.1,4.4-4.8,3.8c-1.8-0.7-2-3.5-0.7-5.9
		c0.1-0.2,0.2-0.4,0.3-0.5c1.3-0.1,2.3,0.5,3,0.9l0.2,0.1c0.3,0.1,0.6,0.2,0.8,0.2c0.4,0,0.8-0.1,1.1-0.4c0.1-0.1,0.1-0.1,0.2-0.2
		C14.8,21.2,14.7,21.9,14.5,22.6z"/>
	<path class="st1" d="M18.8,8.7c0.4-1.1,0.8-2.4,1.2-2.7c0.2,0.5-0.7,2.3-0.8,3.5c0,0.2,0.1,0.5,0.4,0.8c0.2,0.2,0.6,0.2,1.2,0.1
		c0.6-0.2,1.1-0.7,1.4-1.3c0.2,0.4,0.6,0.6,1.1,0.6c0.7,0,1-0.4,1.5-0.9c0,0,0,0.1,0,0.1c0.2,0.3,0.4,0.5,0.8,0.6c0.2,0,0.3,0,0.5,0
		c0.4-0.1,0.7-0.4,1-0.6c0.1,0.2,0.3,0.3,0.6,0.4c0.2,0,0.4,0,0.6,0c0.4-0.1,0.7-0.3,1.1-0.6c0,0.1,0,0.2,0,0.3
		c0.1,0.2,0.2,0.3,0.3,0.4c0.2,0.1,0.5,0.2,0.8,0.1c0.7-0.1,1.2-0.8,1.2-0.8c0,0,0,0,0,0c0.1-0.1,0-0.3-0.2-0.4c0,0-0.1,0-0.2,0
		c-0.1,0-0.2,0.1-0.3,0.1c-0.1,0.1-0.2,0.1-0.2,0.1c0,0,0,0,0,0c0,0,0,0,0,0c0-0.3,0.6-1.5,1.3-3c0.1-0.1,0-0.2-0.1-0.3
		c0,0-0.1,0-0.2,0c0,0-0.1,0-0.1,0c-0.4,0-0.8-0.1-1.1,0c0,0-0.1,0-0.1,0.1c-0.1-0.2-0.3-0.3-0.5-0.4c-0.2-0.1-0.4-0.1-0.7,0
		c-0.7,0.1-1.5,0.8-2.1,1.7C27.2,6.8,27,7.4,27,7.9c-0.1,0.2-0.3,0.4-0.4,0.4c0,0-0.1,0-0.1,0c-0.1,0-0.2-0.4-0.1-1.2
		c0-0.3,0.1-0.6,0.1-0.9C26.8,5.6,27,5,27.1,4.8l0,0c0-0.1,0-0.2-0.1-0.2c-0.1-0.1-0.2-0.1-0.2-0.1l-1,0.2c-0.1,0-0.2,0.1-0.2,0.1
		c0,0.1-0.6,1.2-0.8,2.3c0,0-0.2,0.8-0.7,1.2c-1.6,1.2-1-1.1-1-1.1c0.8-1.8,0.9-2.4,0.5-2.6c-0.1,0-0.2-0.1-0.4,0.1
		c-0.3,0.2-0.8,1.3-1,2.5c0,0.1-0.1,0.2-0.1,0.3c-0.4,1.1-0.8,1.5-0.9,1.6c-0.4,0.1,0.4-1.8,0.5-3c0,0,0,0,0,0
		c0-0.1,0.1-0.8-0.3-1.1c-0.2-0.1-0.5-0.3-0.9-0.1c-0.5,0.1-0.9,0.6-1.4,1.4c0,0,1.6-3.7-0.9-3.4c-0.4,0-0.8,0.4-1,0.8
		c-0.6,1.2-0.5,3.2,0.1,5.9c0.1-0.2,0.2-0.6,0.3-1.1c-0.3-3.1,0.3-4.2,0.6-4.3c0,0,0.5-0.2-0.1,3.5c-0.1,0.7-0.3,1.7-0.7,2.2
		c0,0-0.3,0.6-1,0.8c-0.4,0.1-0.6-0.2-0.6-0.2c0.3-0.7,0.4-1.3,0.3-2c0-0.8-0.2-1.3-0.5-1.5c-0.2-0.1-0.4-0.2-0.6-0.1
		c-0.3,0.1-0.6,0.3-0.7,0.3c0,0,0,0,0,0c0,0-1,1.2-0.3,3.4c0.1,0.2,0.1,0.3,0.2,0.5c0.4-0.6,0.8-1.4,0.8-2.1c0-0.4,0-0.9,0.2-1
		c0,0.2,0,0.5,0,0.8c0,0,0.2,1.6-1.3,3.2c0,0,0,0-0.1,0c-0.1-0.1-0.2-0.1-0.4-0.1c-0.1,0-0.2,0.1-0.3,0.1c-0.2,0.1-0.5,0.5-0.4,1
		c0,0.1,0.2,0.5,0.8,0.3c0.2-0.1,0.4-0.2,0.5-0.2c0,0,0,0,0,0c0,0,0.5-0.4,1-1.1c0.3,0.1,0.6,0.1,0.9,0C16.1,11.6,18,11.3,18.8,8.7z
		 M30,6.7c-0.3,0.6-0.8,1-1.2,1.1c-0.1,0-0.2,0-0.2,0c-0.1,0-0.2-0.1-0.2-0.2c-0.1-0.2-0.1-0.7,0.3-1.3c0.3-0.5,0.8-0.9,1.2-1
		c0.1,0,0.2,0,0.3,0c0.1,0,0.1,0.1,0.2,0.2C30.3,5.8,30.3,6.2,30,6.7z"/>
	<path class="st0" d="M23.1,7.3c0,0,0.2-1.2,0.3-1.6c0,0-0.1,0.8,0,0.8C23.6,6.6,23.1,7.3,23.1,7.3z"/>
</g>
</svg>
