<?xml version="1.0" encoding="utf-8"?>
<!-- Generator: Adobe Illustrator 19.2.0, SVG Export Plug-In . SVG Version: 6.00 Build 0)  -->
<svg version="1.1" id="Layer_1" xmlns="http://www.w3.org/2000/svg" xmlns:xlink="http://www.w3.org/1999/xlink" x="0px" y="0px"
	 viewBox="0 0 41.9 37.9" style="enable-background:new 0 0 41.9 37.9;" xml:space="preserve">
<style type="text/css">
	.st0{fill:#FBB116;}
	.st1{fill:#542771;}
</style>
<g>
	<g>
		<circle class="st0" cx="21.6" cy="19.1" r="13.2"/>
		<path class="st0" d="M38,18.7c0.1-0.7-0.1-1.3-0.6-1.8c-0.6-0.6-1.6-0.8-2.6-0.6c-0.1,0-0.2,0-0.3,0.1c-0.1-0.2-0.3-0.3-0.5-0.5
			c0,0,0,0,0,0c0-0.2,0-0.3,0-0.5c-0.1-0.3-0.2-0.5-0.3-0.7c0.3,0.1,0.4,0.2,0.5,0.3c0.1,0.4,0.5,0.6,0.9,0.7c0.5,0.1,1-0.2,1.2-0.7
			c0.7-1.5,0.3-2.6-0.1-3.2c-0.6-1-1.9-1.7-3.7-2c0.2-0.6,0.1-1.2-0.4-1.6c0.3-0.6,0.6-1.2,0.8-1.7c0.3-0.6,0.1-1.4-0.5-1.7
			c-0.2-0.1-0.4-0.2-0.7-0.2l0,0c-0.3,0-0.7-0.1-0.9-0.1c-0.1-0.1-0.3-0.2-0.4-0.2c-0.4-0.2-0.8-0.2-1.3-0.1
			c-0.5,0.1-0.9,0.3-1.4,0.6c0-0.1-0.1-0.1-0.1-0.2c-0.3-0.4-0.8-0.6-1.3-0.5l-1,0.2c-0.3,0.1-0.7,0.2-0.9,0.5
			c-0.1-0.2-0.3-0.3-0.5-0.4c-0.5-0.3-1.2-0.2-1.7,0.2c-0.1,0.1-0.2,0.2-0.2,0.3c0,0,0,0,0,0c-0.3-0.3-0.8-0.5-1.3-0.5
			c0-0.4-0.1-0.7-0.3-1c-0.4-0.6-1-0.9-1.7-0.9c-0.1,0-0.3,0-0.4,0c-0.7,0.1-1.4,0.6-1.8,1.3c-0.1,0.2-0.2,0.3-0.2,0.5
			c-0.3-0.1-0.6-0.2-0.9-0.1c-0.4,0.1-0.8,0.3-1.2,0.7c-0.1,0-0.3,0-0.4,0L7.3,6.6C7,6.4,6.5,6.2,6.1,6.2c-1.3,0-2.3,1-2.3,2.3
			c0,1.2,1,2.3,2.3,2.3c0.2,0,0.4,0,0.6-0.1c0,0,0.1,0,0.1,0c0.4-0.1,0.9-0.3,1.5-0.6c0.1,0,0.2-0.1,0.3-0.1
			c-1.4,2.2-2.6,5.3-2.4,9.2c-0.7,0.2-1.1,0.9-1.1,1.6c0,0.6,0.3,1.1,0.7,1.4c-0.7,1.8-0.9,3.7-0.4,5.1c0.4,1.2,1.1,2.1,2.2,2.6
			c0.5,0.2,1.1,0.4,1.7,0.4c0.5,0,1.1-0.1,1.6-0.3c-0.7,0.9-1.1,1.8-1.1,2.8c0.1,1.5,1,2.2,1.2,2.4c0.3,0.2,0.6,0.3,0.9,0.3
			c0.1,0,0.2,0,0.3,0c0.4-0.1,0.7-0.3,0.9-0.5c0.1-0.1,0.2-0.2,0.3-0.3c2.9-5.6,9.8-7.5,14.7-8.5c2.3-0.5,4.3-0.5,5-0.5
			c0.2,0,0.3,0,0.4,0c0.1,0,0.1,0,0.2,0c0.2,0,0.4,0,0.6-0.1c1.8-0.3,3-1.7,3.3-2.9c0.3-0.9,0.2-1.8-0.3-2.6
			C37.7,19.6,37.9,19.2,38,18.7z M25.2,14.1c-0.7,0.2-1.1,0.4-1.5,0.6c-0.2,0.1-0.4,0.3-0.5,0.4c-0.7-0.1-1.6,0.2-2.1,1
			c-0.1,0.2-0.2,0.5-0.3,0.7c-0.2,0-0.4,0-0.6,0.1c-0.1,0-0.3,0.1-0.5,0.2c0-0.2,0.1-0.5,0.1-1c0-0.1,0-0.8-0.4-1.4
			c2.1-0.5,4.1-0.7,5.9-0.7C25.3,13.9,25.2,14,25.2,14.1z M12.6,9.8c0,0.5,0.1,0.9,0.3,1.4c-0.1,0-0.2,0.1-0.3,0.1
			c-0.6,0.4-1.1,1.2-0.8,2.1c0,0.1,0.1,0.3,0.2,0.4c-0.5,0.3-0.9,0.5-1.3,0.7C10.9,13.5,11.4,11.9,12.6,9.8z M15.1,15.9
			c-0.1,0.3-0.1,0.6-0.1,0.8l0,0.1c-0.2-0.2-0.4-0.3-0.5-0.3c-0.1-0.1-0.2-0.1-0.4-0.1C14.4,16.2,14.7,16.1,15.1,15.9z M10.1,21.4
			c0.7,0.1,1.3,0.4,1.8,0.7l0.2,0.1c0.4,0.2,0.8,0.3,1.3,0.3c-0.7,2.1-2.3,3.3-3.2,2.9c-0.1,0-0.4-0.2-0.6-0.7
			C9.3,23.9,9.5,22.5,10.1,21.4z"/>
	</g>
	<path class="st1" d="M14.9,6.5c0.2,0,0.3-0.1,0.5-0.3c0.2-0.2,0.3-0.4,0.4-0.6c0.1-0.3,0.1-0.5-0.1-0.7c-0.1-0.1-0.3-0.2-0.4-0.1
		c-0.2,0-0.5,0.3-0.7,0.6c-0.3,0.4-0.3,0.8-0.1,1C14.6,6.5,14.7,6.6,14.9,6.5z"/>
	<path class="st1" d="M18.3,24.3l-0.1-1.6c-0.6,0.4-1,1-1.4,1.3c0.1,0.5-0.1,1-0.3,1.1c0,0,0,0-0.1,0c-0.1,0-0.3,0-0.3-0.3
		c0-0.4,0.1-0.7,0.4-1.2v0c0.3-0.4,1-1.1,2.2-1.9c2.1-1.4,2.5-1.7,2.5-1.7s0,0,0,0c0.5-0.4,0.8-0.7,0.9-1.1c0.1-0.5,0.1-0.9-0.2-1.2
		c-0.3-0.3-0.7-0.4-0.8-0.4c-0.1,0-0.3,0-0.5,0C20,17.7,19,18.2,18.9,20c0,0.3,0,0.6,0,0.9c-0.2,0.1-0.5,0.3-0.8,0.5
		c-0.4-4.2-0.2-5.4-0.1-5.7c0.1,0,0.2,0.6,0.2,0.6c0,0.2,0,0.3,0.1,0.4c0.1,0.1,0.2,0.1,0.2,0.1c0.1,0,0.2-0.1,0.2-0.1
		c0,0,0-0.1,0-0.1c0,0,0.1-0.4,0.1-0.9c0,0,0-1.1-1.1-0.9c0,0,0,0,0,0c-1.2,0.3-1.6,1.2-1.6,1.7c0,0,0,0,0,0l0.4,6.2
		c-0.3,0.3-0.6,0.6-0.8,0.8c-1,1.2-0.7,2-0.5,2.3c0.3,0.4,0.8,0.7,1.3,0.6c0,0,0,0,0.1,0C17.7,26,18.2,25.4,18.3,24.3 M21.2,18.5
		C21.2,18.5,21.2,18.4,21.2,18.5c0.1,0.1,0.2,0.2,0.2,0.5c0,0.1-0.2,0.5-1.1,1.1C20.5,18.6,21.1,18.5,21.2,18.5z"/>
	<path class="st1" d="M28.1,14.4c-1,0.1-2.9,0.4-3.7,0.9c-1,0.7,0,1.2,0.4,1c0.3-0.1,1.7-0.6,3-0.7C28,15.3,28.1,14.7,28.1,14.4z"/>
	<path class="st1" d="M21.9,21.5c-0.6,0.9-1.2,0.6-1.2,0.6c-0.2-0.2-0.3-0.5-0.4-0.9c-0.2,0.2-0.4,0.3-0.7,0.5
		c-0.1,0.1-0.3,0.2-0.6,0.4c0.2,0.8,0.7,1,0.8,1c0.1,0.1,0.6,0.3,1.1,0.2c0.9-0.2,1.9-0.9,2.3-2.4c0.3-0.9,0.4-1.8,0.6-2.7
		c0,0,0,0.1,0,0.1c0,0,0.3,0.1,0.4,0.3c0.1,0.2-0.5,2.3-0.4,2.8c0.1,0.5,0.2,1.1,1.6,0.9c0.1,0,0.1,0,0.2,0c0.5-0.1,0.9-0.5,1.4-1.1
		c0.2,0.4,0.5,0.6,0.8,0.7c0.1,0,0.2,0,0.3,0c0.3-0.1,0.6-0.3,0.8-0.7c0.1,0.2,0.3,0.3,0.6,0.3c0.1,0,0.3,0,0.5,0
		c0.4-0.1,0.8-0.3,1.2-0.7c0,0.1,0,0.2,0.1,0.3c0.1,0.2,0.2,0.3,0.3,0.4c0.2,0.1,0.5,0.1,0.7,0.1c0.2,0,0.3-0.1,0.5-0.2
		c0,0,0,0,0.1,0c0,0,0.1,0,0.1-0.1c0,0,0,0,0,0c0,0,0,0,0,0c0.2-0.1,0.3-0.3,0.4-0.4c0.3-0.3,0.5-0.6,0.6-0.9
		c0.2,0.2,0.3,0.3,0.4,0.3c0.4,0.3,0.8,0.6,0.6,1.5c-0.2,0.5-0.8,0.8-1.3,0.9c-0.3,0.1-0.5,0.1-0.6,0.1c-0.2,0-4.2-0.2-8.4,0.7
		c-2.5,0.5-4.2,1-5.9,2l0,0c-0.1,0.5-0.4,1.2-1.2,1.5c-0.5,0.3-1,0.3-1.4,0.2c-3.3,1.8-5.2,3.8-5.1,5.3c0.1,1.1,0.7,1.6,0.8,1.6
		c0.1,0.1,0.2,0.1,0.3,0.1c0.2,0,0.3-0.2,0.3-0.2l0,0c0,0,0,0,0-0.1c3.2-6.2,10.9-8.2,15.5-9.1c3.2-0.6,5.6-0.5,5.6-0.5c0,0,0,0,0,0
		c0.1,0,0.3,0,0.4-0.1c1.3-0.3,2.2-1.3,2.5-2.2c0.3-1.1-0.1-1.9-0.9-2.5c0,0,0,0,0,0c0,0-1-0.5-1.1-0.7c-0.1-0.2-0.1-0.3-0.1-0.3
		c0.1-0.2,0.4-0.3,0.6-0.4c0.2,0,0.7,0.1,0.8,0.1c0,0.1,0,0.1,0,0.2c0.1,0.3,0.4,0.4,0.6,0.4c0.2,0,0.3-0.2,0.4-0.4
		c0-0.3,0-0.6-0.3-0.8c-0.3-0.3-0.9-0.4-1.6-0.3c-0.6,0.1-1.1,0.4-1.4,0.9c-0.2,0.4-0.3,0.8-0.3,1c-0.3,0.8-0.7,1.1-0.8,1.2
		c0,0,0,0-0.1,0c0,0,0,0,0,0c0-0.3,0.5-1.6,1.1-3.3c0-0.1,0-0.3-0.1-0.3c-0.1,0-0.1,0-0.2,0c0,0-0.1,0-0.1,0c-0.2,0-0.6,0-0.9,0
		c-0.1,0-0.2,0-0.2,0.1c0,0-0.1,0-0.1,0.1c-0.1-0.2-0.3-0.3-0.5-0.4c-0.2-0.1-0.3-0.1-0.5,0c-0.7,0.1-1.6,0.9-2.1,2
		c-0.4,0.7-0.5,1.5-0.4,2.1c0,0-0.2,0.5-0.7,0.5c-0.4,0-0.1-1.6-0.1-1.6c0.6-1.8,0.8-2.5,1-3.3c0-0.1,0-0.2,0.1-0.3
		c0-0.1,0-0.1,0-0.2c1.2,0,2.3,0.2,3.3,0.8c0.1,0,0.1,0,0.2,0c0.2,0,0.6-0.6,0.5-1.1c-0.2-0.9-1.3-1.2-3.8-1c0-0.4-0.2-0.7-0.4-1
		c0,0-0.2-0.3-0.9-0.3c-3,0-1.2,6.7-1.2,6.7l0.7-2.2c0.1-3.9,0.8-3.6,0.8-3.6c0.6,0.4-1.2,5.9-1.2,5.9c-0.4,0.9-1.2,2.3-1.5,1.6
		c-0.1-0.3,0.3-2.2,0.3-2.2c0.2-1-0.9-1.3-1.8-1.6c0-0.1,0-0.2,0.1-0.4c0.1-0.7-0.3-1-0.7-1.2c-0.3-0.1-0.9,0-1.1,0.4
		c-0.4,0.8,0,1.4,0.8,1.7C23,18,22.5,20.7,21.9,21.5z M22.7,16.4c0.1-0.2,0.5-0.4,0.5,0.1c0,0.2-0.1,0.6-0.1,0.8
		C22.3,17.1,22.7,16.6,22.7,16.4z M31.5,18.6c-0.3,0.6-0.8,1.2-1.2,1.3c-0.1,0-0.1,0-0.2,0c-0.1,0-0.2-0.1-0.2-0.2
		c-0.1-0.2-0.1-0.8,0.2-1.4c0.3-0.7,0.8-1,1.2-1.1c0.1,0,0.1,0,0.2,0c0.1,0,0.1,0.1,0.2,0.2C31.8,17.7,31.8,18.1,31.5,18.6z"/>
	<path class="st1" d="M22.5,11c-5.4,1.1-9.5,3.2-11.5,4.5c0,0,0,0,0,0s-0.5,0.3-1.1,0.7c-0.1,0.1-0.2,0.1-0.2,0.1s0,0,0,0
		c-0.4,0.3-0.8,0.6-1,0.7C8.5,17.3,9,16.6,9.6,16c-0.1-1-0.1-4.1,3.5-9.1C13.6,6.4,14,5.7,14,5.7L7.2,7.5C7,7.3,6.6,7.1,6.3,7.1
		c-0.6,0-1.2,0.5-1.2,1.1c0,0.6,0.5,1.1,1.2,1.1c0.1,0,0.3,0,0.4-0.1l0,0c0,0,0,0,0,0c0,0,0,0,0,0c1.3-0.4,4.4-1.8,5.5-1.9
		c-2,2-4.9,5.8-4.6,11.5c0.1,0.4,0.5,0.2,0.7,0.1c6.8-5.4,17.6-7.5,23.6-6.5c4.1,0.7,3.6,1.9,3.6,1.9C36.9,10.7,31.3,9.3,22.5,11z"
		/>
	<circle class="st1" cx="6.9" cy="20.5" r="0.6"/>
	<path class="st1" d="M15.5,18.9c-0.1-0.5-0.4-0.8-0.7-1.1c-0.1-0.1-0.2-0.1-0.3-0.2c-0.2-0.2-0.4-0.3-0.4-0.3
		c-1.4-0.7-3.5,0.1-5.2,1.9c-0.7,0.2-1.4,0.5-2.2,1.1c-0.2,0.1-0.2,0.4-0.1,0.6c0.1,0.2,0.4,0.2,0.6,0.1c0.2-0.2,0.4-0.3,0.6-0.4
		c-2,3.2-2,7,0.3,8c2.3,1.1,5.6-1.4,7-4.8C15.9,21.9,16,20.1,15.5,18.9z M13.5,18c0.4,0.1,0.7,0.4,1,0.8c0.1-0.3,0.2-0.6,0.2-0.6
		c0.3,0.6,0,1.3,0,1.3s0,0,0,0c-0.1,0.2-0.2,0.4-0.4,0.5c-0.2,0.1-0.6,0.3-1,0.1L13,20c-0.6-0.3-1.5-0.8-2.7-0.9
		C11.4,18.1,12.6,17.6,13.5,18z M14.7,22.5c-0.8,2.5-3,4.3-4.7,3.7c-1.7-0.6-1.9-3.4-0.7-5.7c0.1-0.2,0.2-0.4,0.3-0.5
		c1.2-0.1,2.2,0.4,3,0.8l0.2,0.1c0.3,0.1,0.5,0.2,0.8,0.2c0.4,0,0.8-0.1,1.1-0.4c0.1-0.1,0.1-0.1,0.2-0.2
		C15,21.1,14.9,21.8,14.7,22.5z"/>
	<path class="st1" d="M18.9,9c0.3-1,0.8-2.3,1.2-2.6c0.2,0.5-0.7,2.2-0.7,3.4c0,0.2,0.1,0.5,0.4,0.8c0.2,0.2,0.6,0.2,1.1,0.1
		c0.6-0.2,1-0.7,1.4-1.3c0.2,0.4,0.6,0.6,1.1,0.6c0.7,0,1-0.3,1.5-0.9c0,0,0,0.1,0,0.1c0.2,0.3,0.4,0.5,0.8,0.6c0.2,0,0.3,0,0.5,0
		c0.4-0.1,0.7-0.3,1-0.6c0.1,0.2,0.3,0.3,0.6,0.4c0.2,0,0.4,0,0.6,0c0.3-0.1,0.7-0.3,1.1-0.6c0,0.1,0,0.2,0,0.3
		c0.1,0.2,0.2,0.3,0.3,0.4c0.2,0.1,0.5,0.1,0.8,0.1c0.7-0.1,1.2-0.8,1.2-0.8c0,0,0,0,0,0c0.1-0.1,0-0.3-0.2-0.4c0,0-0.1,0-0.2,0
		c-0.1,0-0.2,0.1-0.3,0.1c-0.1,0.1-0.2,0.1-0.2,0.1c0,0,0,0,0,0c0,0,0,0,0,0c0-0.2,0.6-1.4,1.3-3c0.1-0.1,0-0.2-0.1-0.3
		c0,0-0.1,0-0.1,0c0,0-0.1,0-0.1,0c-0.4,0-0.8-0.1-1,0c0,0-0.1,0-0.1,0.1c-0.1-0.2-0.3-0.3-0.5-0.4c-0.2-0.1-0.4-0.1-0.7,0
		c-0.7,0.1-1.5,0.8-2,1.7c-0.3,0.6-0.5,1.2-0.6,1.7c-0.1,0.2-0.3,0.3-0.4,0.4c0,0-0.1,0-0.1,0c-0.1,0-0.2-0.4-0.1-1.2
		c0-0.3,0.1-0.6,0.1-0.9c0.3-0.6,0.5-1.1,0.6-1.4l0,0c0-0.1,0-0.2-0.1-0.2c-0.1-0.1-0.1-0.1-0.2-0.1l-1,0.2c-0.1,0-0.1,0.1-0.2,0.1
		c0,0.1-0.5,1.2-0.7,2.2c0,0-0.2,0.8-0.7,1.2c-1.5,1.2-1-1.1-1-1.1c0.8-1.7,0.8-2.3,0.5-2.5c-0.1,0-0.2-0.1-0.4,0.1
		c-0.3,0.2-0.8,1.3-1,2.4c0,0.1-0.1,0.2-0.1,0.3c-0.4,1-0.7,1.4-0.9,1.6c-0.4,0.1,0.4-1.8,0.5-2.9c0,0,0,0,0,0
		c0-0.1,0.1-0.7-0.3-1.1c-0.2-0.1-0.4-0.2-0.9-0.1c-0.5,0.1-0.9,0.6-1.3,1.4c0,0,1.5-3.6-0.9-3.3c-0.4,0-0.8,0.4-1,0.8
		c-0.6,1.2-0.5,3.1,0.1,5.7c0.1-0.2,0.2-0.5,0.3-1.1c-0.3-3,0.3-4.1,0.6-4.2c0,0,0.5-0.2-0.1,3.4C18,8.5,17.8,9.5,17.5,10
		c0,0-0.3,0.6-1,0.7c-0.4,0.1-0.6-0.2-0.6-0.2c0.2-0.6,0.4-1.3,0.3-1.9c0-0.8-0.2-1.3-0.5-1.5C15.6,7,15.4,6.9,15.2,7
		c-0.3,0.1-0.6,0.3-0.6,0.3c0,0,0,0,0,0c0,0-1,1.1-0.3,3.3c0.1,0.2,0.1,0.3,0.2,0.5c0.4-0.6,0.8-1.3,0.8-2c0-0.4,0-0.9,0.2-1
		c0,0.2,0,0.5,0,0.7c0,0,0.1,1.5-1.3,3.1c0,0,0,0-0.1,0c-0.1-0.1-0.2-0.1-0.4-0.1c-0.1,0-0.2,0.1-0.3,0.1c-0.2,0.1-0.5,0.5-0.3,0.9
		c0,0.1,0.2,0.5,0.8,0.3c0.2-0.1,0.4-0.2,0.4-0.2c0,0,0,0,0,0c0,0,0.5-0.4,1-1.1c0.3,0.1,0.6,0.1,0.9,0C16.2,11.8,18.1,11.5,18.9,9z
		 M29.7,7c-0.3,0.6-0.8,1-1.2,1.1c-0.1,0-0.2,0-0.2,0c-0.1,0-0.2-0.1-0.2-0.2C28,7.7,28,7.2,28.4,6.6c0.3-0.5,0.7-0.9,1.1-0.9
		c0.1,0,0.2,0,0.3,0c0.1,0,0.1,0.1,0.2,0.2C30,6.1,30,6.5,29.7,7z"/>
	<path class="st1" d="M23,7.6c0,0,0.2-1.2,0.3-1.5c0,0-0.1,0.8,0,0.8C23.5,7,23,7.6,23,7.6z"/>
</g>
</svg>
