<?xml version="1.0" encoding="utf-8"?>
<!-- Generator: Adobe Illustrator 15.0.2, SVG Export Plug-In . SVG Version: 6.00 Build 0)  -->
<!DOCTYPE svg PUBLIC "-//W3C//DTD SVG 1.1//EN" "http://www.w3.org/Graphics/SVG/1.1/DTD/svg11.dtd">
<svg version="1.1" id="Layer_1" xmlns="http://www.w3.org/2000/svg" xmlns:xlink="http://www.w3.org/1999/xlink" x="0px" y="0px"
	 width="43.75px" height="19.75px" viewBox="-10.472 -2.463 43.75 19.75" enable-background="new -10.472 -2.463 43.75 19.75"
	 xml:space="preserve">
<circle fill="#D9762D" cx="11.3" cy="7.581" r="9.706"/>
<g>
	<g>
		<path fill="#EEEBE4" d="M17.081,4.252c0.006,0.021,0.012,0.041,0.012,0.063v6.531c0,0.111-0.092,0.203-0.203,0.203H5.709
			c-0.112,0-0.203-0.092-0.203-0.203V4.345L4.7,3.819c-0.074,0.15-0.116,0.317-0.116,0.496v6.531c0,0.62,0.504,1.126,1.125,1.126
			h11.18c0.619,0,1.125-0.506,1.125-1.126V4.315c0-0.213-0.061-0.411-0.162-0.58L17.081,4.252z"/>
	</g>
	<g>
		<path fill="#EEEBE4" d="M16.889,4.112h-1.254l-4.339,2.915L6.837,4.112H5.71c-0.112,0-0.203,0.092-0.203,0.203v0.03l5.797,3.789
			l5.777-3.882C17.053,4.171,16.979,4.112,16.889,4.112z"/>
	</g>
	<g>
		<path fill="#EEEBE4" d="M16.889,4.112c0.09,0,0.164,0.06,0.191,0.141l0.77-0.518c-0.18-0.296-0.49-0.505-0.85-0.54l-1.365,0.916
			L16.889,4.112L16.889,4.112z"/>
	</g>
	<g>
		<path fill="#EEEBE4" d="M5.506,4.315c0-0.111,0.091-0.203,0.202-0.203h1.127L5.466,3.216C5.129,3.291,4.85,3.517,4.7,3.819
			l0.806,0.526V4.315z"/>
	</g>
	<g>
		<polygon fill="#EEEBE4" points="6.62,3.19 7.244,3.597 8.031,4.112 14.602,4.112 15.364,3.602 15.977,3.19 		"/>
	</g>
	<g>
		
			<rect x="7.236" y="5.858" transform="matrix(-0.6954 -0.7186 0.7186 -0.6954 6.5746 20.8112)" fill="#EEEBE4" width="0.924" height="6.309"/>
	</g>
	<g>
		
			<rect x="11.926" y="8.55" transform="matrix(-0.7192 -0.6948 0.6948 -0.7192 19.665 25.9694)" fill="#EEEBE4" width="6.308" height="0.923"/>
	</g>
</g>
<path fill="#D9762D" d="M0.528,7.581c0,0.38-0.308,0.687-0.688,0.687h-9.125c-0.38,0-0.688-0.307-0.688-0.687l0,0
	c0-0.38,0.308-0.688,0.688-0.688h9.125C0.22,6.894,0.528,7.201,0.528,7.581L0.528,7.581z"/>
<path fill="#D9762D" d="M32.841,7.581c0,0.38-0.308,0.687-0.688,0.687h-9.125c-0.38,0-0.688-0.307-0.688-0.687l0,0
	c0-0.38,0.308-0.688,0.688-0.688h9.125C32.533,6.894,32.841,7.201,32.841,7.581L32.841,7.581z"/>
</svg>
